<mxfile host="app.diagrams.net" modified="2023-09-01T08:28:54.905Z" agent="Mozilla/5.0 (Windows NT 10.0; Win64; x64) AppleWebKit/537.36 (KHTML, like Gecko) Chrome/116.0.0.0 Safari/537.36" etag="RyyzLDcDOyPEkU3R_Xil" version="21.6.9" type="device">
  <diagram name="페이지-1" id="rUXzKb7b-l1SbchWsAPp">
    <mxGraphModel dx="4044" dy="2432" grid="1" gridSize="10" guides="1" tooltips="1" connect="1" arrows="1" fold="1" page="1" pageScale="1" pageWidth="827" pageHeight="1169" math="0" shadow="0">
      <root>
        <mxCell id="0" />
        <mxCell id="1" parent="0" />
        <mxCell id="HWj-FUaqQjM2sqnTud0V-21" style="edgeStyle=orthogonalEdgeStyle;rounded=0;orthogonalLoop=1;jettySize=auto;html=1;entryX=0.5;entryY=0;entryDx=0;entryDy=0;endArrow=none;endFill=0;" parent="1" source="6R-Llf3wO1dXMThDPdHq-49" target="A24sD_70ZPP4tN2usuSs-377" edge="1">
          <mxGeometry relative="1" as="geometry" />
        </mxCell>
        <mxCell id="HWj-FUaqQjM2sqnTud0V-122" style="edgeStyle=orthogonalEdgeStyle;rounded=0;orthogonalLoop=1;jettySize=auto;html=1;dashed=1;" parent="1" source="6R-Llf3wO1dXMThDPdHq-49" target="HWj-FUaqQjM2sqnTud0V-121" edge="1">
          <mxGeometry relative="1" as="geometry" />
        </mxCell>
        <mxCell id="6R-Llf3wO1dXMThDPdHq-49" value="OptionMenuEvt" style="swimlane;fontStyle=1;align=center;verticalAlign=top;childLayout=stackLayout;horizontal=1;startSize=26;horizontalStack=0;resizeParent=1;resizeParentMax=0;resizeLast=0;collapsible=1;marginBottom=0;whiteSpace=wrap;html=1;fillColor=#f8cecc;strokeColor=#b85450;" parent="1" vertex="1">
          <mxGeometry x="-531" y="268" width="235" height="170" as="geometry" />
        </mxCell>
        <mxCell id="6R-Llf3wO1dXMThDPdHq-50" value="+ field: type" style="text;strokeColor=none;fillColor=none;align=left;verticalAlign=top;spacingLeft=4;spacingRight=4;overflow=hidden;rotatable=0;points=[[0,0.5],[1,0.5]];portConstraint=eastwest;whiteSpace=wrap;html=1;" parent="6R-Llf3wO1dXMThDPdHq-49" vertex="1">
          <mxGeometry y="26" width="235" height="22" as="geometry" />
        </mxCell>
        <mxCell id="6R-Llf3wO1dXMThDPdHq-51" value="" style="line;strokeWidth=1;fillColor=none;align=left;verticalAlign=middle;spacingTop=-1;spacingLeft=3;spacingRight=3;rotatable=0;labelPosition=right;points=[];portConstraint=eastwest;strokeColor=inherit;" parent="6R-Llf3wO1dXMThDPdHq-49" vertex="1">
          <mxGeometry y="48" width="235" height="8" as="geometry" />
        </mxCell>
        <mxCell id="6R-Llf3wO1dXMThDPdHq-52" value="+ OptionMenuEvt( OptionNenuView )&lt;br&gt;&lt;br&gt;+ addMenu() : void&lt;br&gt;+ setTotalPrice() : void&lt;br&gt;+ cancelMenu() : void&lt;br&gt;+ setMenu( String ) : void" style="text;strokeColor=none;fillColor=none;align=left;verticalAlign=top;spacingLeft=4;spacingRight=4;overflow=hidden;rotatable=0;points=[[0,0.5],[1,0.5]];portConstraint=eastwest;whiteSpace=wrap;html=1;" parent="6R-Llf3wO1dXMThDPdHq-49" vertex="1">
          <mxGeometry y="56" width="235" height="114" as="geometry" />
        </mxCell>
        <mxCell id="HWj-FUaqQjM2sqnTud0V-22" style="edgeStyle=orthogonalEdgeStyle;rounded=0;orthogonalLoop=1;jettySize=auto;html=1;entryX=0.5;entryY=0;entryDx=0;entryDy=0;endArrow=none;endFill=0;" parent="1" source="A24sD_70ZPP4tN2usuSs-45" target="A24sD_70ZPP4tN2usuSs-382" edge="1">
          <mxGeometry relative="1" as="geometry" />
        </mxCell>
        <mxCell id="HWj-FUaqQjM2sqnTud0V-125" style="edgeStyle=orthogonalEdgeStyle;rounded=0;orthogonalLoop=1;jettySize=auto;html=1;entryX=0.5;entryY=1;entryDx=0;entryDy=0;" parent="1" source="A24sD_70ZPP4tN2usuSs-45" target="HWj-FUaqQjM2sqnTud0V-123" edge="1">
          <mxGeometry relative="1" as="geometry" />
        </mxCell>
        <mxCell id="HWj-FUaqQjM2sqnTud0V-126" style="edgeStyle=orthogonalEdgeStyle;rounded=0;orthogonalLoop=1;jettySize=auto;html=1;entryX=0.5;entryY=1;entryDx=0;entryDy=0;dashed=1;" parent="1" source="A24sD_70ZPP4tN2usuSs-45" target="HWj-FUaqQjM2sqnTud0V-124" edge="1">
          <mxGeometry relative="1" as="geometry" />
        </mxCell>
        <mxCell id="A24sD_70ZPP4tN2usuSs-45" value="MenuEvt" style="swimlane;fontStyle=1;align=center;verticalAlign=top;childLayout=stackLayout;horizontal=1;startSize=26;horizontalStack=0;resizeParent=1;resizeParentMax=0;resizeLast=0;collapsible=1;marginBottom=0;whiteSpace=wrap;html=1;fillColor=#f8cecc;strokeColor=#b85450;" parent="1" vertex="1">
          <mxGeometry x="-975" y="560" width="230" height="170" as="geometry" />
        </mxCell>
        <mxCell id="A24sD_70ZPP4tN2usuSs-46" value="- menuView : MenuView&lt;br&gt;-&amp;nbsp;" style="text;strokeColor=none;fillColor=none;align=left;verticalAlign=top;spacingLeft=4;spacingRight=4;overflow=hidden;rotatable=0;points=[[0,0.5],[1,0.5]];portConstraint=eastwest;whiteSpace=wrap;html=1;" parent="A24sD_70ZPP4tN2usuSs-45" vertex="1">
          <mxGeometry y="26" width="230" height="26" as="geometry" />
        </mxCell>
        <mxCell id="A24sD_70ZPP4tN2usuSs-47" value="" style="line;strokeWidth=1;fillColor=none;align=left;verticalAlign=middle;spacingTop=-1;spacingLeft=3;spacingRight=3;rotatable=0;labelPosition=right;points=[];portConstraint=eastwest;strokeColor=inherit;" parent="A24sD_70ZPP4tN2usuSs-45" vertex="1">
          <mxGeometry y="52" width="230" height="8" as="geometry" />
        </mxCell>
        <mxCell id="A24sD_70ZPP4tN2usuSs-48" value="+ MenuEvt( menuView )&lt;br&gt;&lt;br&gt;+ actionPerformed( ActionEvent) : void&amp;nbsp;&lt;br style=&quot;border-color: var(--border-color);&quot;&gt;+ windowClosing( WIndowEvent) : void&lt;br&gt;&lt;br&gt;+ completeSelection() : void&lt;br&gt;+ cancelMenu() : void" style="text;strokeColor=none;fillColor=none;align=left;verticalAlign=top;spacingLeft=4;spacingRight=4;overflow=hidden;rotatable=0;points=[[0,0.5],[1,0.5]];portConstraint=eastwest;whiteSpace=wrap;html=1;" parent="A24sD_70ZPP4tN2usuSs-45" vertex="1">
          <mxGeometry y="60" width="230" height="110" as="geometry" />
        </mxCell>
        <mxCell id="HWj-FUaqQjM2sqnTud0V-119" style="edgeStyle=orthogonalEdgeStyle;rounded=0;orthogonalLoop=1;jettySize=auto;html=1;entryX=0.5;entryY=1;entryDx=0;entryDy=0;" parent="1" source="A24sD_70ZPP4tN2usuSs-49" target="HWj-FUaqQjM2sqnTud0V-117" edge="1">
          <mxGeometry relative="1" as="geometry" />
        </mxCell>
        <mxCell id="HWj-FUaqQjM2sqnTud0V-120" style="edgeStyle=orthogonalEdgeStyle;rounded=0;orthogonalLoop=1;jettySize=auto;html=1;entryX=0.5;entryY=1;entryDx=0;entryDy=0;dashed=1;" parent="1" source="A24sD_70ZPP4tN2usuSs-49" target="HWj-FUaqQjM2sqnTud0V-118" edge="1">
          <mxGeometry relative="1" as="geometry" />
        </mxCell>
        <mxCell id="A24sD_70ZPP4tN2usuSs-49" value="MainEvt" style="swimlane;fontStyle=1;align=center;verticalAlign=top;childLayout=stackLayout;horizontal=1;startSize=26;horizontalStack=0;resizeParent=1;resizeParentMax=0;resizeLast=0;collapsible=1;marginBottom=0;whiteSpace=wrap;html=1;fillColor=#f8cecc;strokeColor=#b85450;" parent="1" vertex="1">
          <mxGeometry x="-531" y="-228" width="230" height="160" as="geometry" />
        </mxCell>
        <mxCell id="A24sD_70ZPP4tN2usuSs-50" value="- mainView : MainView" style="text;strokeColor=none;fillColor=none;align=left;verticalAlign=top;spacingLeft=4;spacingRight=4;overflow=hidden;rotatable=0;points=[[0,0.5],[1,0.5]];portConstraint=eastwest;whiteSpace=wrap;html=1;" parent="A24sD_70ZPP4tN2usuSs-49" vertex="1">
          <mxGeometry y="26" width="230" height="44" as="geometry" />
        </mxCell>
        <mxCell id="A24sD_70ZPP4tN2usuSs-51" value="" style="line;strokeWidth=1;fillColor=none;align=left;verticalAlign=middle;spacingTop=-1;spacingLeft=3;spacingRight=3;rotatable=0;labelPosition=right;points=[];portConstraint=eastwest;strokeColor=inherit;" parent="A24sD_70ZPP4tN2usuSs-49" vertex="1">
          <mxGeometry y="70" width="230" height="8" as="geometry" />
        </mxCell>
        <mxCell id="A24sD_70ZPP4tN2usuSs-52" value="+ MainEvt( mainView )&lt;br&gt;&lt;br&gt;+ actionPerformed( ActionEvent) : void&amp;nbsp;&lt;br&gt;+ windowClosing( WIndowEvent) : void" style="text;strokeColor=none;fillColor=none;align=left;verticalAlign=top;spacingLeft=4;spacingRight=4;overflow=hidden;rotatable=0;points=[[0,0.5],[1,0.5]];portConstraint=eastwest;whiteSpace=wrap;html=1;" parent="A24sD_70ZPP4tN2usuSs-49" vertex="1">
          <mxGeometry y="78" width="230" height="82" as="geometry" />
        </mxCell>
        <mxCell id="HWj-FUaqQjM2sqnTud0V-129" style="edgeStyle=orthogonalEdgeStyle;rounded=0;orthogonalLoop=1;jettySize=auto;html=1;entryX=0.5;entryY=1;entryDx=0;entryDy=0;" parent="1" source="A24sD_70ZPP4tN2usuSs-53" target="HWj-FUaqQjM2sqnTud0V-127" edge="1">
          <mxGeometry relative="1" as="geometry" />
        </mxCell>
        <mxCell id="HWj-FUaqQjM2sqnTud0V-130" style="edgeStyle=orthogonalEdgeStyle;rounded=0;orthogonalLoop=1;jettySize=auto;html=1;entryX=0.5;entryY=1;entryDx=0;entryDy=0;dashed=1;" parent="1" source="A24sD_70ZPP4tN2usuSs-53" target="HWj-FUaqQjM2sqnTud0V-128" edge="1">
          <mxGeometry relative="1" as="geometry" />
        </mxCell>
        <mxCell id="A24sD_70ZPP4tN2usuSs-53" value="PaymentEvt" style="swimlane;fontStyle=1;align=center;verticalAlign=top;childLayout=stackLayout;horizontal=1;startSize=26;horizontalStack=0;resizeParent=1;resizeParentMax=0;resizeLast=0;collapsible=1;marginBottom=0;whiteSpace=wrap;html=1;fillColor=#f8cecc;strokeColor=#b85450;" parent="1" vertex="1">
          <mxGeometry x="-533" y="1017" width="230" height="220" as="geometry" />
        </mxCell>
        <mxCell id="A24sD_70ZPP4tN2usuSs-54" value="- paymentView : PaymentView" style="text;strokeColor=none;fillColor=none;align=left;verticalAlign=top;spacingLeft=4;spacingRight=4;overflow=hidden;rotatable=0;points=[[0,0.5],[1,0.5]];portConstraint=eastwest;whiteSpace=wrap;html=1;" parent="A24sD_70ZPP4tN2usuSs-53" vertex="1">
          <mxGeometry y="26" width="230" height="26" as="geometry" />
        </mxCell>
        <mxCell id="A24sD_70ZPP4tN2usuSs-55" value="" style="line;strokeWidth=1;fillColor=none;align=left;verticalAlign=middle;spacingTop=-1;spacingLeft=3;spacingRight=3;rotatable=0;labelPosition=right;points=[];portConstraint=eastwest;strokeColor=inherit;" parent="A24sD_70ZPP4tN2usuSs-53" vertex="1">
          <mxGeometry y="52" width="230" height="8" as="geometry" />
        </mxCell>
        <mxCell id="A24sD_70ZPP4tN2usuSs-56" value="+ PaymentEvt( paymentView )&lt;br&gt;&lt;br&gt;+ actionPerformed( ActionEvent) : void&amp;nbsp;&lt;br style=&quot;border-color: var(--border-color);&quot;&gt;+ windowClosing( WIndowEvent) : void&lt;br&gt;&lt;br&gt;+ completePayment() : void&lt;br&gt;+ usePoint():void&lt;br&gt;+ checkUser() : void&lt;br&gt;+ paymentMethod() : void&lt;br&gt;+ setOrderDetails() : void" style="text;strokeColor=none;fillColor=none;align=left;verticalAlign=top;spacingLeft=4;spacingRight=4;overflow=hidden;rotatable=0;points=[[0,0.5],[1,0.5]];portConstraint=eastwest;whiteSpace=wrap;html=1;" parent="A24sD_70ZPP4tN2usuSs-53" vertex="1">
          <mxGeometry y="60" width="230" height="160" as="geometry" />
        </mxCell>
        <mxCell id="HWj-FUaqQjM2sqnTud0V-36" style="edgeStyle=orthogonalEdgeStyle;rounded=0;orthogonalLoop=1;jettySize=auto;html=1;endArrow=none;endFill=0;" parent="1" source="A24sD_70ZPP4tN2usuSs-57" target="A24sD_70ZPP4tN2usuSs-390" edge="1">
          <mxGeometry relative="1" as="geometry">
            <Array as="points">
              <mxPoint x="-865" y="1680" />
              <mxPoint x="-865" y="1680" />
            </Array>
          </mxGeometry>
        </mxCell>
        <mxCell id="HWj-FUaqQjM2sqnTud0V-60" style="edgeStyle=orthogonalEdgeStyle;rounded=0;orthogonalLoop=1;jettySize=auto;html=1;endArrow=none;endFill=0;" parent="1" source="A24sD_70ZPP4tN2usuSs-57" target="A24sD_70ZPP4tN2usuSs-234" edge="1">
          <mxGeometry relative="1" as="geometry">
            <Array as="points">
              <mxPoint x="-700" y="1520" />
              <mxPoint x="-700" y="1520" />
            </Array>
          </mxGeometry>
        </mxCell>
        <mxCell id="HWj-FUaqQjM2sqnTud0V-133" style="edgeStyle=orthogonalEdgeStyle;rounded=0;orthogonalLoop=1;jettySize=auto;html=1;entryX=0.5;entryY=1;entryDx=0;entryDy=0;" parent="1" source="A24sD_70ZPP4tN2usuSs-57" target="HWj-FUaqQjM2sqnTud0V-131" edge="1">
          <mxGeometry relative="1" as="geometry" />
        </mxCell>
        <mxCell id="HWj-FUaqQjM2sqnTud0V-134" style="edgeStyle=orthogonalEdgeStyle;rounded=0;orthogonalLoop=1;jettySize=auto;html=1;dashed=1;" parent="1" source="A24sD_70ZPP4tN2usuSs-57" target="HWj-FUaqQjM2sqnTud0V-132" edge="1">
          <mxGeometry relative="1" as="geometry" />
        </mxCell>
        <mxCell id="A24sD_70ZPP4tN2usuSs-57" value="AdLoginEvt" style="swimlane;fontStyle=1;align=center;verticalAlign=top;childLayout=stackLayout;horizontal=1;startSize=26;horizontalStack=0;resizeParent=1;resizeParentMax=0;resizeLast=0;collapsible=1;marginBottom=0;whiteSpace=wrap;html=1;fillColor=#f8cecc;strokeColor=#b85450;" parent="1" vertex="1">
          <mxGeometry x="-985" y="1490" width="230" height="200" as="geometry" />
        </mxCell>
        <mxCell id="A24sD_70ZPP4tN2usuSs-58" value="- adLoginView : AdLoginView" style="text;strokeColor=none;fillColor=none;align=left;verticalAlign=top;spacingLeft=4;spacingRight=4;overflow=hidden;rotatable=0;points=[[0,0.5],[1,0.5]];portConstraint=eastwest;whiteSpace=wrap;html=1;" parent="A24sD_70ZPP4tN2usuSs-57" vertex="1">
          <mxGeometry y="26" width="230" height="26" as="geometry" />
        </mxCell>
        <mxCell id="A24sD_70ZPP4tN2usuSs-59" value="" style="line;strokeWidth=1;fillColor=none;align=left;verticalAlign=middle;spacingTop=-1;spacingLeft=3;spacingRight=3;rotatable=0;labelPosition=right;points=[];portConstraint=eastwest;strokeColor=inherit;" parent="A24sD_70ZPP4tN2usuSs-57" vertex="1">
          <mxGeometry y="52" width="230" height="8" as="geometry" />
        </mxCell>
        <mxCell id="A24sD_70ZPP4tN2usuSs-60" value="+ AdLoginEvt( adLoginView )&lt;br&gt;&lt;br&gt;&lt;br&gt;+ actionPerformed( ActionEvent) : void&amp;nbsp;&lt;br style=&quot;border-color: var(--border-color);&quot;&gt;+ windowClosing( WIndowEvent) : void&lt;br&gt;&lt;br&gt;+ checkLogin() : void" style="text;strokeColor=none;fillColor=none;align=left;verticalAlign=top;spacingLeft=4;spacingRight=4;overflow=hidden;rotatable=0;points=[[0,0.5],[1,0.5]];portConstraint=eastwest;whiteSpace=wrap;html=1;" parent="A24sD_70ZPP4tN2usuSs-57" vertex="1">
          <mxGeometry y="60" width="230" height="140" as="geometry" />
        </mxCell>
        <mxCell id="HWj-FUaqQjM2sqnTud0V-137" style="edgeStyle=orthogonalEdgeStyle;rounded=0;orthogonalLoop=1;jettySize=auto;html=1;entryX=0.5;entryY=1;entryDx=0;entryDy=0;" parent="1" source="A24sD_70ZPP4tN2usuSs-61" target="HWj-FUaqQjM2sqnTud0V-136" edge="1">
          <mxGeometry relative="1" as="geometry" />
        </mxCell>
        <mxCell id="HWj-FUaqQjM2sqnTud0V-138" style="edgeStyle=orthogonalEdgeStyle;rounded=0;orthogonalLoop=1;jettySize=auto;html=1;entryX=0.5;entryY=1;entryDx=0;entryDy=0;dashed=1;" parent="1" source="A24sD_70ZPP4tN2usuSs-61" target="HWj-FUaqQjM2sqnTud0V-135" edge="1">
          <mxGeometry relative="1" as="geometry" />
        </mxCell>
        <mxCell id="A24sD_70ZPP4tN2usuSs-61" value="AdProductEvt" style="swimlane;fontStyle=1;align=center;verticalAlign=top;childLayout=stackLayout;horizontal=1;startSize=26;horizontalStack=0;resizeParent=1;resizeParentMax=0;resizeLast=0;collapsible=1;marginBottom=0;whiteSpace=wrap;html=1;fillColor=#f8cecc;strokeColor=#b85450;" parent="1" vertex="1">
          <mxGeometry x="-204" y="1754" width="230" height="240" as="geometry" />
        </mxCell>
        <mxCell id="A24sD_70ZPP4tN2usuSs-62" value="- adProductView : AdProductView" style="text;strokeColor=none;fillColor=none;align=left;verticalAlign=top;spacingLeft=4;spacingRight=4;overflow=hidden;rotatable=0;points=[[0,0.5],[1,0.5]];portConstraint=eastwest;whiteSpace=wrap;html=1;" parent="A24sD_70ZPP4tN2usuSs-61" vertex="1">
          <mxGeometry y="26" width="230" height="26" as="geometry" />
        </mxCell>
        <mxCell id="A24sD_70ZPP4tN2usuSs-63" value="" style="line;strokeWidth=1;fillColor=none;align=left;verticalAlign=middle;spacingTop=-1;spacingLeft=3;spacingRight=3;rotatable=0;labelPosition=right;points=[];portConstraint=eastwest;strokeColor=inherit;" parent="A24sD_70ZPP4tN2usuSs-61" vertex="1">
          <mxGeometry y="52" width="230" height="8" as="geometry" />
        </mxCell>
        <mxCell id="A24sD_70ZPP4tN2usuSs-64" value="+ AdProductEvt( adProductView )&lt;br&gt;&lt;br&gt;+ actionPerformed( ActionEvent ) : void&amp;nbsp;&lt;br style=&quot;border-color: var(--border-color);&quot;&gt;+ windowClosing( WIndowEvent ) : void&lt;br&gt;&lt;br&gt;+ addImage () : void&amp;nbsp;&lt;br&gt;+ modifyProduct() : void&lt;br&gt;+ addNewProduct() : void&lt;br&gt;+ addProductImg() : void&lt;br style=&quot;border-color: var(--border-color);&quot;&gt;+ setProductInfo() : void&lt;br&gt;+ setProductType() : void" style="text;strokeColor=none;fillColor=none;align=left;verticalAlign=top;spacingLeft=4;spacingRight=4;overflow=hidden;rotatable=0;points=[[0,0.5],[1,0.5]];portConstraint=eastwest;whiteSpace=wrap;html=1;" parent="A24sD_70ZPP4tN2usuSs-61" vertex="1">
          <mxGeometry y="60" width="230" height="180" as="geometry" />
        </mxCell>
        <mxCell id="HWj-FUaqQjM2sqnTud0V-55" style="edgeStyle=orthogonalEdgeStyle;rounded=0;orthogonalLoop=1;jettySize=auto;html=1;endArrow=none;endFill=0;" parent="1" source="A24sD_70ZPP4tN2usuSs-65" target="A24sD_70ZPP4tN2usuSs-218" edge="1">
          <mxGeometry relative="1" as="geometry" />
        </mxCell>
        <mxCell id="HWj-FUaqQjM2sqnTud0V-145" style="edgeStyle=orthogonalEdgeStyle;rounded=0;orthogonalLoop=1;jettySize=auto;html=1;entryX=0.5;entryY=1;entryDx=0;entryDy=0;" parent="1" source="A24sD_70ZPP4tN2usuSs-65" target="HWj-FUaqQjM2sqnTud0V-144" edge="1">
          <mxGeometry relative="1" as="geometry" />
        </mxCell>
        <mxCell id="HWj-FUaqQjM2sqnTud0V-146" style="edgeStyle=orthogonalEdgeStyle;rounded=0;orthogonalLoop=1;jettySize=auto;html=1;dashed=1;" parent="1" source="A24sD_70ZPP4tN2usuSs-65" target="HWj-FUaqQjM2sqnTud0V-143" edge="1">
          <mxGeometry relative="1" as="geometry" />
        </mxCell>
        <mxCell id="A24sD_70ZPP4tN2usuSs-65" value="AdInventoryEvt" style="swimlane;fontStyle=1;align=center;verticalAlign=top;childLayout=stackLayout;horizontal=1;startSize=26;horizontalStack=0;resizeParent=1;resizeParentMax=0;resizeLast=0;collapsible=1;marginBottom=0;whiteSpace=wrap;html=1;fillColor=#f8cecc;strokeColor=#b85450;" parent="1" vertex="1">
          <mxGeometry x="-214" y="2461" width="240" height="220" as="geometry" />
        </mxCell>
        <mxCell id="A24sD_70ZPP4tN2usuSs-66" value="- adInventoryView : AdInventoryView&amp;nbsp;" style="text;strokeColor=none;fillColor=none;align=left;verticalAlign=top;spacingLeft=4;spacingRight=4;overflow=hidden;rotatable=0;points=[[0,0.5],[1,0.5]];portConstraint=eastwest;whiteSpace=wrap;html=1;" parent="A24sD_70ZPP4tN2usuSs-65" vertex="1">
          <mxGeometry y="26" width="240" height="26" as="geometry" />
        </mxCell>
        <mxCell id="A24sD_70ZPP4tN2usuSs-67" value="" style="line;strokeWidth=1;fillColor=none;align=left;verticalAlign=middle;spacingTop=-1;spacingLeft=3;spacingRight=3;rotatable=0;labelPosition=right;points=[];portConstraint=eastwest;strokeColor=inherit;" parent="A24sD_70ZPP4tN2usuSs-65" vertex="1">
          <mxGeometry y="52" width="240" height="8" as="geometry" />
        </mxCell>
        <mxCell id="A24sD_70ZPP4tN2usuSs-68" value="+ AdInventoryEvt( adInventoryView )&lt;br&gt;&lt;br&gt;+ + actionPerformed( ActionEvent ) : void&amp;nbsp;&lt;br style=&quot;border-color: var(--border-color);&quot;&gt;+ windowClosing( WIndowEvent ) : void&lt;br&gt;&lt;br&gt;+ modifyMd() : void&lt;br&gt;+ addNewMd() : void&lt;br&gt;+ setMdInfo() : void&lt;br&gt;+ setMdType() : void" style="text;strokeColor=none;fillColor=none;align=left;verticalAlign=top;spacingLeft=4;spacingRight=4;overflow=hidden;rotatable=0;points=[[0,0.5],[1,0.5]];portConstraint=eastwest;whiteSpace=wrap;html=1;" parent="A24sD_70ZPP4tN2usuSs-65" vertex="1">
          <mxGeometry y="60" width="240" height="160" as="geometry" />
        </mxCell>
        <mxCell id="HWj-FUaqQjM2sqnTud0V-141" style="edgeStyle=orthogonalEdgeStyle;rounded=0;orthogonalLoop=1;jettySize=auto;html=1;entryX=0.5;entryY=1;entryDx=0;entryDy=0;" parent="1" source="A24sD_70ZPP4tN2usuSs-69" target="HWj-FUaqQjM2sqnTud0V-140" edge="1">
          <mxGeometry relative="1" as="geometry" />
        </mxCell>
        <mxCell id="HWj-FUaqQjM2sqnTud0V-142" style="edgeStyle=orthogonalEdgeStyle;rounded=0;orthogonalLoop=1;jettySize=auto;html=1;entryX=0.5;entryY=1;entryDx=0;entryDy=0;dashed=1;" parent="1" source="A24sD_70ZPP4tN2usuSs-69" target="HWj-FUaqQjM2sqnTud0V-139" edge="1">
          <mxGeometry relative="1" as="geometry" />
        </mxCell>
        <mxCell id="A24sD_70ZPP4tN2usuSs-69" value="AdUserEvt" style="swimlane;fontStyle=1;align=center;verticalAlign=top;childLayout=stackLayout;horizontal=1;startSize=26;horizontalStack=0;resizeParent=1;resizeParentMax=0;resizeLast=0;collapsible=1;marginBottom=0;whiteSpace=wrap;html=1;fillColor=#f8cecc;strokeColor=#b85450;" parent="1" vertex="1">
          <mxGeometry x="-214" y="2131" width="240" height="210" as="geometry" />
        </mxCell>
        <mxCell id="A24sD_70ZPP4tN2usuSs-70" value="- adUserView : AdUserView" style="text;strokeColor=none;fillColor=none;align=left;verticalAlign=top;spacingLeft=4;spacingRight=4;overflow=hidden;rotatable=0;points=[[0,0.5],[1,0.5]];portConstraint=eastwest;whiteSpace=wrap;html=1;" parent="A24sD_70ZPP4tN2usuSs-69" vertex="1">
          <mxGeometry y="26" width="240" height="26" as="geometry" />
        </mxCell>
        <mxCell id="A24sD_70ZPP4tN2usuSs-71" value="" style="line;strokeWidth=1;fillColor=none;align=left;verticalAlign=middle;spacingTop=-1;spacingLeft=3;spacingRight=3;rotatable=0;labelPosition=right;points=[];portConstraint=eastwest;strokeColor=inherit;" parent="A24sD_70ZPP4tN2usuSs-69" vertex="1">
          <mxGeometry y="52" width="240" height="8" as="geometry" />
        </mxCell>
        <mxCell id="A24sD_70ZPP4tN2usuSs-72" value="+ AdUserEvt( adUserView )&lt;br&gt;&lt;br&gt;+ actionPerformed( ActionEvent ) : void&amp;nbsp;&lt;br style=&quot;border-color: var(--border-color);&quot;&gt;+ windowClosing( WIndowEvent ) : void&lt;br&gt;&lt;br&gt;+ deleteUserInfo() : void&lt;br&gt;+ modifyUserInfo() : void&lt;br&gt;+ addUserInfo() : void&lt;br&gt;+ setUserInfo() : void&lt;br&gt;" style="text;strokeColor=none;fillColor=none;align=left;verticalAlign=top;spacingLeft=4;spacingRight=4;overflow=hidden;rotatable=0;points=[[0,0.5],[1,0.5]];portConstraint=eastwest;whiteSpace=wrap;html=1;" parent="A24sD_70ZPP4tN2usuSs-69" vertex="1">
          <mxGeometry y="60" width="240" height="150" as="geometry" />
        </mxCell>
        <mxCell id="HWj-FUaqQjM2sqnTud0V-56" style="edgeStyle=orthogonalEdgeStyle;rounded=0;orthogonalLoop=1;jettySize=auto;html=1;endArrow=none;endFill=0;" parent="1" source="A24sD_70ZPP4tN2usuSs-73" target="A24sD_70ZPP4tN2usuSs-230" edge="1">
          <mxGeometry relative="1" as="geometry">
            <Array as="points">
              <mxPoint x="190" y="2906" />
              <mxPoint x="190" y="2906" />
            </Array>
          </mxGeometry>
        </mxCell>
        <mxCell id="HWj-FUaqQjM2sqnTud0V-149" style="edgeStyle=orthogonalEdgeStyle;rounded=0;orthogonalLoop=1;jettySize=auto;html=1;entryX=0.5;entryY=1;entryDx=0;entryDy=0;" parent="1" source="A24sD_70ZPP4tN2usuSs-73" target="HWj-FUaqQjM2sqnTud0V-148" edge="1">
          <mxGeometry relative="1" as="geometry" />
        </mxCell>
        <mxCell id="HWj-FUaqQjM2sqnTud0V-150" style="edgeStyle=orthogonalEdgeStyle;rounded=0;orthogonalLoop=1;jettySize=auto;html=1;entryX=0.5;entryY=1;entryDx=0;entryDy=0;dashed=1;" parent="1" source="A24sD_70ZPP4tN2usuSs-73" target="HWj-FUaqQjM2sqnTud0V-147" edge="1">
          <mxGeometry relative="1" as="geometry" />
        </mxCell>
        <mxCell id="A24sD_70ZPP4tN2usuSs-73" value="AdOrderStatusEvt" style="swimlane;fontStyle=1;align=center;verticalAlign=top;childLayout=stackLayout;horizontal=1;startSize=26;horizontalStack=0;resizeParent=1;resizeParentMax=0;resizeLast=0;collapsible=1;marginBottom=0;whiteSpace=wrap;html=1;fillColor=#f8cecc;strokeColor=#b85450;" parent="1" vertex="1">
          <mxGeometry x="-214" y="2791" width="240" height="230" as="geometry" />
        </mxCell>
        <mxCell id="A24sD_70ZPP4tN2usuSs-74" value="- adOrderStatusView : AdOrderStatusView" style="text;strokeColor=none;fillColor=none;align=left;verticalAlign=top;spacingLeft=4;spacingRight=4;overflow=hidden;rotatable=0;points=[[0,0.5],[1,0.5]];portConstraint=eastwest;whiteSpace=wrap;html=1;" parent="A24sD_70ZPP4tN2usuSs-73" vertex="1">
          <mxGeometry y="26" width="240" height="26" as="geometry" />
        </mxCell>
        <mxCell id="A24sD_70ZPP4tN2usuSs-75" value="" style="line;strokeWidth=1;fillColor=none;align=left;verticalAlign=middle;spacingTop=-1;spacingLeft=3;spacingRight=3;rotatable=0;labelPosition=right;points=[];portConstraint=eastwest;strokeColor=inherit;" parent="A24sD_70ZPP4tN2usuSs-73" vertex="1">
          <mxGeometry y="52" width="240" height="8" as="geometry" />
        </mxCell>
        <mxCell id="A24sD_70ZPP4tN2usuSs-76" value="+ AdOrderStatusEvt( adOrderStatusView )&lt;br&gt;&lt;br&gt;+ actionPerformed( ActionEvent ) : void&amp;nbsp;&lt;br style=&quot;border-color: var(--border-color);&quot;&gt;+ windowClosing( WIndowEvent ) : void&lt;br&gt;&lt;br&gt;+ setOrderList() : void&lt;br&gt;+ reloadOrder() : void&lt;br&gt;+ checkOrder() : void&lt;br&gt;" style="text;strokeColor=none;fillColor=none;align=left;verticalAlign=top;spacingLeft=4;spacingRight=4;overflow=hidden;rotatable=0;points=[[0,0.5],[1,0.5]];portConstraint=eastwest;whiteSpace=wrap;html=1;" parent="A24sD_70ZPP4tN2usuSs-73" vertex="1">
          <mxGeometry y="60" width="240" height="170" as="geometry" />
        </mxCell>
        <mxCell id="HWj-FUaqQjM2sqnTud0V-57" style="edgeStyle=orthogonalEdgeStyle;rounded=0;orthogonalLoop=1;jettySize=auto;html=1;endArrow=none;endFill=0;" parent="1" source="A24sD_70ZPP4tN2usuSs-77" target="A24sD_70ZPP4tN2usuSs-226" edge="1">
          <mxGeometry relative="1" as="geometry">
            <Array as="points">
              <mxPoint x="200" y="3214" />
              <mxPoint x="200" y="3214" />
            </Array>
          </mxGeometry>
        </mxCell>
        <mxCell id="HWj-FUaqQjM2sqnTud0V-153" style="edgeStyle=orthogonalEdgeStyle;rounded=0;orthogonalLoop=1;jettySize=auto;html=1;entryX=0.5;entryY=1;entryDx=0;entryDy=0;" parent="1" source="A24sD_70ZPP4tN2usuSs-77" target="HWj-FUaqQjM2sqnTud0V-152" edge="1">
          <mxGeometry relative="1" as="geometry" />
        </mxCell>
        <mxCell id="HWj-FUaqQjM2sqnTud0V-154" style="edgeStyle=orthogonalEdgeStyle;rounded=0;orthogonalLoop=1;jettySize=auto;html=1;entryX=0.5;entryY=1;entryDx=0;entryDy=0;dashed=1;" parent="1" source="A24sD_70ZPP4tN2usuSs-77" target="HWj-FUaqQjM2sqnTud0V-151" edge="1">
          <mxGeometry relative="1" as="geometry" />
        </mxCell>
        <mxCell id="A24sD_70ZPP4tN2usuSs-77" value="AdSalesEvt" style="swimlane;fontStyle=1;align=center;verticalAlign=top;childLayout=stackLayout;horizontal=1;startSize=26;horizontalStack=0;resizeParent=1;resizeParentMax=0;resizeLast=0;collapsible=1;marginBottom=0;whiteSpace=wrap;html=1;fillColor=#f8cecc;strokeColor=#b85450;" parent="1" vertex="1">
          <mxGeometry x="-208" y="3116" width="230" height="240" as="geometry" />
        </mxCell>
        <mxCell id="A24sD_70ZPP4tN2usuSs-78" value="- adSalesView : AdSalesView" style="text;strokeColor=none;fillColor=none;align=left;verticalAlign=top;spacingLeft=4;spacingRight=4;overflow=hidden;rotatable=0;points=[[0,0.5],[1,0.5]];portConstraint=eastwest;whiteSpace=wrap;html=1;" parent="A24sD_70ZPP4tN2usuSs-77" vertex="1">
          <mxGeometry y="26" width="230" height="26" as="geometry" />
        </mxCell>
        <mxCell id="A24sD_70ZPP4tN2usuSs-79" value="" style="line;strokeWidth=1;fillColor=none;align=left;verticalAlign=middle;spacingTop=-1;spacingLeft=3;spacingRight=3;rotatable=0;labelPosition=right;points=[];portConstraint=eastwest;strokeColor=inherit;" parent="A24sD_70ZPP4tN2usuSs-77" vertex="1">
          <mxGeometry y="52" width="230" height="8" as="geometry" />
        </mxCell>
        <mxCell id="A24sD_70ZPP4tN2usuSs-80" value="+ AdSalesEvr( adSalesView )&lt;br&gt;&lt;br&gt;+ actionPerformed( ActionEvent ) : void&amp;nbsp;&lt;br style=&quot;border-color: var(--border-color);&quot;&gt;+ windowClosing( WIndowEvent ) : void&lt;br&gt;&lt;br&gt;+ searchMonthlySales() : void&lt;br&gt;+ searchDailySales() : void&lt;br&gt;+ searchPeriodicSales() : void&lt;br&gt;+ setProductName() : void&lt;br&gt;+ setProductType() : void" style="text;strokeColor=none;fillColor=none;align=left;verticalAlign=top;spacingLeft=4;spacingRight=4;overflow=hidden;rotatable=0;points=[[0,0.5],[1,0.5]];portConstraint=eastwest;whiteSpace=wrap;html=1;" parent="A24sD_70ZPP4tN2usuSs-77" vertex="1">
          <mxGeometry y="60" width="230" height="180" as="geometry" />
        </mxCell>
        <mxCell id="A24sD_70ZPP4tN2usuSs-126" value="+DbConn" style="swimlane;fontStyle=1;align=center;verticalAlign=top;childLayout=stackLayout;horizontal=1;startSize=26;horizontalStack=0;resizeParent=1;resizeParentMax=0;resizeLast=0;collapsible=1;marginBottom=0;whiteSpace=wrap;html=1;fillColor=#dae8fc;strokeColor=#6c8ebf;" parent="1" vertex="1">
          <mxGeometry x="280" y="1480" width="300" height="140" as="geometry" />
        </mxCell>
        <mxCell id="A24sD_70ZPP4tN2usuSs-127" value="- static db : Dbcon" style="text;strokeColor=none;fillColor=none;align=left;verticalAlign=top;spacingLeft=4;spacingRight=4;overflow=hidden;rotatable=0;points=[[0,0.5],[1,0.5]];portConstraint=eastwest;whiteSpace=wrap;html=1;" parent="A24sD_70ZPP4tN2usuSs-126" vertex="1">
          <mxGeometry y="26" width="300" height="26" as="geometry" />
        </mxCell>
        <mxCell id="A24sD_70ZPP4tN2usuSs-128" value="" style="line;strokeWidth=1;fillColor=none;align=left;verticalAlign=middle;spacingTop=-1;spacingLeft=3;spacingRight=3;rotatable=0;labelPosition=right;points=[];portConstraint=eastwest;strokeColor=inherit;" parent="A24sD_70ZPP4tN2usuSs-126" vertex="1">
          <mxGeometry y="52" width="300" height="8" as="geometry" />
        </mxCell>
        <mxCell id="A24sD_70ZPP4tN2usuSs-129" value="-DbConn()&lt;br&gt;+static getInstance() : DbCon&lt;br&gt;+ getConn() : Connection&lt;br&gt;+ dbClose(ResultSet, Statement, Connection) : void" style="text;strokeColor=none;fillColor=none;align=left;verticalAlign=top;spacingLeft=4;spacingRight=4;overflow=hidden;rotatable=0;points=[[0,0.5],[1,0.5]];portConstraint=eastwest;whiteSpace=wrap;html=1;" parent="A24sD_70ZPP4tN2usuSs-126" vertex="1">
          <mxGeometry y="60" width="300" height="80" as="geometry" />
        </mxCell>
        <mxCell id="HWj-FUaqQjM2sqnTud0V-66" style="edgeStyle=orthogonalEdgeStyle;rounded=0;orthogonalLoop=1;jettySize=auto;html=1;endArrow=none;endFill=0;" parent="1" source="A24sD_70ZPP4tN2usuSs-134" target="A24sD_70ZPP4tN2usuSs-214" edge="1">
          <mxGeometry relative="1" as="geometry" />
        </mxCell>
        <mxCell id="HWj-FUaqQjM2sqnTud0V-78" style="edgeStyle=orthogonalEdgeStyle;rounded=0;orthogonalLoop=1;jettySize=auto;html=1;endArrow=none;endFill=0;" parent="1" source="A24sD_70ZPP4tN2usuSs-134" target="A24sD_70ZPP4tN2usuSs-61" edge="1">
          <mxGeometry relative="1" as="geometry">
            <Array as="points">
              <mxPoint x="1030" y="1271" />
              <mxPoint x="1030" y="1840" />
            </Array>
          </mxGeometry>
        </mxCell>
        <mxCell id="HWj-FUaqQjM2sqnTud0V-80" style="edgeStyle=orthogonalEdgeStyle;rounded=0;orthogonalLoop=1;jettySize=auto;html=1;endArrow=none;endFill=0;" parent="1" source="A24sD_70ZPP4tN2usuSs-134" target="6R-Llf3wO1dXMThDPdHq-49" edge="1">
          <mxGeometry relative="1" as="geometry">
            <Array as="points">
              <mxPoint x="350" y="1271" />
              <mxPoint x="350" y="370" />
            </Array>
          </mxGeometry>
        </mxCell>
        <mxCell id="A24sD_70ZPP4tN2usuSs-134" value="ProductVO" style="swimlane;fontStyle=1;align=center;verticalAlign=top;childLayout=stackLayout;horizontal=1;startSize=26;horizontalStack=0;resizeParent=1;resizeParentMax=0;resizeLast=0;collapsible=1;marginBottom=0;whiteSpace=wrap;html=1;fillColor=#d5e8d4;strokeColor=#82b366;" parent="1" vertex="1">
          <mxGeometry x="590" y="1155.5" width="390" height="230" as="geometry" />
        </mxCell>
        <mxCell id="A24sD_70ZPP4tN2usuSs-135" value="- pdCode : String&lt;br&gt;- pdTypeCode : String&lt;br&gt;- pdImageName : String&lt;br&gt;- pdName : String&lt;br&gt;- pdPrice : Int&lt;br&gt;- pdDelete : String&lt;br&gt;- pdInputDate : Date" style="text;strokeColor=none;fillColor=none;align=left;verticalAlign=top;spacingLeft=4;spacingRight=4;overflow=hidden;rotatable=0;points=[[0,0.5],[1,0.5]];portConstraint=eastwest;whiteSpace=wrap;html=1;" parent="A24sD_70ZPP4tN2usuSs-134" vertex="1">
          <mxGeometry y="26" width="390" height="114" as="geometry" />
        </mxCell>
        <mxCell id="A24sD_70ZPP4tN2usuSs-136" value="" style="line;strokeWidth=1;fillColor=none;align=left;verticalAlign=middle;spacingTop=-1;spacingLeft=3;spacingRight=3;rotatable=0;labelPosition=right;points=[];portConstraint=eastwest;strokeColor=inherit;" parent="A24sD_70ZPP4tN2usuSs-134" vertex="1">
          <mxGeometry y="140" width="390" height="8" as="geometry" />
        </mxCell>
        <mxCell id="A24sD_70ZPP4tN2usuSs-137" value="+ProductVO() : void&lt;br style=&quot;border-color: var(--border-color);&quot;&gt;+ProductVO(String, String, String, String, Int, String, Date) : void&lt;br style=&quot;border-color: var(--border-color);&quot;&gt;+getter&lt;br style=&quot;border-color: var(--border-color);&quot;&gt;+setter" style="text;strokeColor=none;fillColor=none;align=left;verticalAlign=top;spacingLeft=4;spacingRight=4;overflow=hidden;rotatable=0;points=[[0,0.5],[1,0.5]];portConstraint=eastwest;whiteSpace=wrap;html=1;" parent="A24sD_70ZPP4tN2usuSs-134" vertex="1">
          <mxGeometry y="148" width="390" height="82" as="geometry" />
        </mxCell>
        <mxCell id="HWj-FUaqQjM2sqnTud0V-82" style="edgeStyle=orthogonalEdgeStyle;rounded=0;orthogonalLoop=1;jettySize=auto;html=1;endArrow=none;endFill=0;" parent="1" source="A24sD_70ZPP4tN2usuSs-138" target="A24sD_70ZPP4tN2usuSs-222" edge="1">
          <mxGeometry relative="1" as="geometry" />
        </mxCell>
        <mxCell id="HWj-FUaqQjM2sqnTud0V-83" style="edgeStyle=orthogonalEdgeStyle;rounded=0;orthogonalLoop=1;jettySize=auto;html=1;endArrow=none;endFill=0;" parent="1" source="A24sD_70ZPP4tN2usuSs-138" target="A24sD_70ZPP4tN2usuSs-69" edge="1">
          <mxGeometry relative="1" as="geometry">
            <Array as="points">
              <mxPoint x="915" y="2360" />
              <mxPoint x="-120" y="2360" />
            </Array>
          </mxGeometry>
        </mxCell>
        <mxCell id="A24sD_70ZPP4tN2usuSs-138" value="UserVO" style="swimlane;fontStyle=1;align=center;verticalAlign=top;childLayout=stackLayout;horizontal=1;startSize=26;horizontalStack=0;resizeParent=1;resizeParentMax=0;resizeLast=0;collapsible=1;marginBottom=0;whiteSpace=wrap;html=1;fillColor=#d5e8d4;strokeColor=#82b366;" parent="1" vertex="1">
          <mxGeometry x="770" y="2157" width="290" height="158" as="geometry" />
        </mxCell>
        <mxCell id="A24sD_70ZPP4tN2usuSs-139" value="- uTelNum : String&lt;br&gt;- uRemainReward : Int&lt;br&gt;- uSignupDate : Date" style="text;strokeColor=none;fillColor=none;align=left;verticalAlign=top;spacingLeft=4;spacingRight=4;overflow=hidden;rotatable=0;points=[[0,0.5],[1,0.5]];portConstraint=eastwest;whiteSpace=wrap;html=1;" parent="A24sD_70ZPP4tN2usuSs-138" vertex="1">
          <mxGeometry y="26" width="290" height="54" as="geometry" />
        </mxCell>
        <mxCell id="A24sD_70ZPP4tN2usuSs-140" value="" style="line;strokeWidth=1;fillColor=none;align=left;verticalAlign=middle;spacingTop=-1;spacingLeft=3;spacingRight=3;rotatable=0;labelPosition=right;points=[];portConstraint=eastwest;strokeColor=inherit;" parent="A24sD_70ZPP4tN2usuSs-138" vertex="1">
          <mxGeometry y="80" width="290" height="8" as="geometry" />
        </mxCell>
        <mxCell id="A24sD_70ZPP4tN2usuSs-141" value="+UserVO() : void&lt;br style=&quot;border-color: var(--border-color);&quot;&gt;+UserVO(String, Int, Date) : void&lt;br style=&quot;border-color: var(--border-color);&quot;&gt;+getter&lt;br style=&quot;border-color: var(--border-color);&quot;&gt;+setter" style="text;strokeColor=none;fillColor=none;align=left;verticalAlign=top;spacingLeft=4;spacingRight=4;overflow=hidden;rotatable=0;points=[[0,0.5],[1,0.5]];portConstraint=eastwest;whiteSpace=wrap;html=1;" parent="A24sD_70ZPP4tN2usuSs-138" vertex="1">
          <mxGeometry y="88" width="290" height="70" as="geometry" />
        </mxCell>
        <mxCell id="HWj-FUaqQjM2sqnTud0V-84" style="edgeStyle=orthogonalEdgeStyle;rounded=0;orthogonalLoop=1;jettySize=auto;html=1;endArrow=none;endFill=0;" parent="1" source="A24sD_70ZPP4tN2usuSs-142" target="A24sD_70ZPP4tN2usuSs-65" edge="1">
          <mxGeometry relative="1" as="geometry">
            <Array as="points">
              <mxPoint x="925" y="2700" />
              <mxPoint x="-120" y="2700" />
            </Array>
          </mxGeometry>
        </mxCell>
        <mxCell id="HWj-FUaqQjM2sqnTud0V-85" style="edgeStyle=orthogonalEdgeStyle;rounded=0;orthogonalLoop=1;jettySize=auto;html=1;endArrow=none;endFill=0;" parent="1" source="A24sD_70ZPP4tN2usuSs-142" target="A24sD_70ZPP4tN2usuSs-218" edge="1">
          <mxGeometry relative="1" as="geometry" />
        </mxCell>
        <mxCell id="A24sD_70ZPP4tN2usuSs-142" value="InventoryVO" style="swimlane;fontStyle=1;align=center;verticalAlign=top;childLayout=stackLayout;horizontal=1;startSize=26;horizontalStack=0;resizeParent=1;resizeParentMax=0;resizeLast=0;collapsible=1;marginBottom=0;whiteSpace=wrap;html=1;fillColor=#d5e8d4;strokeColor=#82b366;" parent="1" vertex="1">
          <mxGeometry x="780" y="2461" width="290" height="220" as="geometry" />
        </mxCell>
        <mxCell id="A24sD_70ZPP4tN2usuSs-143" value="- iNum : Int&lt;br&gt;- iTypeCode : Int&lt;br&gt;- iName : String&lt;br&gt;- iMount : Int&lt;br&gt;- iDelete : String&lt;br&gt;- iInputDate : Date" style="text;strokeColor=none;fillColor=none;align=left;verticalAlign=top;spacingLeft=4;spacingRight=4;overflow=hidden;rotatable=0;points=[[0,0.5],[1,0.5]];portConstraint=eastwest;whiteSpace=wrap;html=1;" parent="A24sD_70ZPP4tN2usuSs-142" vertex="1">
          <mxGeometry y="26" width="290" height="104" as="geometry" />
        </mxCell>
        <mxCell id="A24sD_70ZPP4tN2usuSs-144" value="" style="line;strokeWidth=1;fillColor=none;align=left;verticalAlign=middle;spacingTop=-1;spacingLeft=3;spacingRight=3;rotatable=0;labelPosition=right;points=[];portConstraint=eastwest;strokeColor=inherit;" parent="A24sD_70ZPP4tN2usuSs-142" vertex="1">
          <mxGeometry y="130" width="290" height="8" as="geometry" />
        </mxCell>
        <mxCell id="A24sD_70ZPP4tN2usuSs-145" value="+InventoryVO() : void&lt;br style=&quot;border-color: var(--border-color);&quot;&gt;+InventoryVO(Int, Int, String, Int, String, Date) : void&lt;br style=&quot;border-color: var(--border-color);&quot;&gt;+getter&lt;br style=&quot;border-color: var(--border-color);&quot;&gt;+setter" style="text;strokeColor=none;fillColor=none;align=left;verticalAlign=top;spacingLeft=4;spacingRight=4;overflow=hidden;rotatable=0;points=[[0,0.5],[1,0.5]];portConstraint=eastwest;whiteSpace=wrap;html=1;" parent="A24sD_70ZPP4tN2usuSs-142" vertex="1">
          <mxGeometry y="138" width="290" height="82" as="geometry" />
        </mxCell>
        <mxCell id="HWj-FUaqQjM2sqnTud0V-73" style="edgeStyle=orthogonalEdgeStyle;rounded=0;orthogonalLoop=1;jettySize=auto;html=1;endArrow=none;endFill=0;" parent="1" source="A24sD_70ZPP4tN2usuSs-146" target="A24sD_70ZPP4tN2usuSs-53" edge="1">
          <mxGeometry relative="1" as="geometry" />
        </mxCell>
        <mxCell id="HWj-FUaqQjM2sqnTud0V-75" style="edgeStyle=orthogonalEdgeStyle;rounded=0;orthogonalLoop=1;jettySize=auto;html=1;endArrow=none;endFill=0;" parent="1" source="A24sD_70ZPP4tN2usuSs-146" target="A24sD_70ZPP4tN2usuSs-238" edge="1">
          <mxGeometry relative="1" as="geometry" />
        </mxCell>
        <mxCell id="A24sD_70ZPP4tN2usuSs-146" value="PaymentVO" style="swimlane;fontStyle=1;align=center;verticalAlign=top;childLayout=stackLayout;horizontal=1;startSize=26;horizontalStack=0;resizeParent=1;resizeParentMax=0;resizeLast=0;collapsible=1;marginBottom=0;whiteSpace=wrap;html=1;fillColor=#d5e8d4;strokeColor=#82b366;" parent="1" vertex="1">
          <mxGeometry x="-85" y="1143" width="290" height="230" as="geometry" />
        </mxCell>
        <mxCell id="A24sD_70ZPP4tN2usuSs-147" value="- pmCode : Int&lt;br&gt;- pmTypeCode : Int&lt;br&gt;- pmStatusCode : String&lt;br&gt;- orderPrice : Int&lt;br&gt;- discounPrice : Int&lt;br&gt;- totalPrice : Int&lt;br&gt;- pmDate : Date" style="text;strokeColor=none;fillColor=none;align=left;verticalAlign=top;spacingLeft=4;spacingRight=4;overflow=hidden;rotatable=0;points=[[0,0.5],[1,0.5]];portConstraint=eastwest;whiteSpace=wrap;html=1;" parent="A24sD_70ZPP4tN2usuSs-146" vertex="1">
          <mxGeometry y="26" width="290" height="114" as="geometry" />
        </mxCell>
        <mxCell id="A24sD_70ZPP4tN2usuSs-148" value="" style="line;strokeWidth=1;fillColor=none;align=left;verticalAlign=middle;spacingTop=-1;spacingLeft=3;spacingRight=3;rotatable=0;labelPosition=right;points=[];portConstraint=eastwest;strokeColor=inherit;" parent="A24sD_70ZPP4tN2usuSs-146" vertex="1">
          <mxGeometry y="140" width="290" height="8" as="geometry" />
        </mxCell>
        <mxCell id="A24sD_70ZPP4tN2usuSs-149" value="+PaymentVO() : void&lt;br style=&quot;border-color: var(--border-color);&quot;&gt;+PaymentVO(Int, Int, String, Int, Int, Int, Date) : void&lt;br style=&quot;border-color: var(--border-color);&quot;&gt;+getter&lt;br style=&quot;border-color: var(--border-color);&quot;&gt;+setter" style="text;strokeColor=none;fillColor=none;align=left;verticalAlign=top;spacingLeft=4;spacingRight=4;overflow=hidden;rotatable=0;points=[[0,0.5],[1,0.5]];portConstraint=eastwest;whiteSpace=wrap;html=1;" parent="A24sD_70ZPP4tN2usuSs-146" vertex="1">
          <mxGeometry y="148" width="290" height="82" as="geometry" />
        </mxCell>
        <mxCell id="A24sD_70ZPP4tN2usuSs-154" value="OrderDetailVO" style="swimlane;fontStyle=1;align=center;verticalAlign=top;childLayout=stackLayout;horizontal=1;startSize=26;horizontalStack=0;resizeParent=1;resizeParentMax=0;resizeLast=0;collapsible=1;marginBottom=0;whiteSpace=wrap;html=1;fillColor=#d5e8d4;strokeColor=#82b366;" parent="1" vertex="1">
          <mxGeometry x="306" y="3440" width="290" height="270" as="geometry" />
        </mxCell>
        <mxCell id="A24sD_70ZPP4tN2usuSs-155" value="- oDetailNum : String&lt;br&gt;- oLineNum : Int&lt;br&gt;- pdCode : String&lt;br&gt;- oMount : Int&lt;br&gt;- oTempType : String&lt;br&gt;- oOptionNum : Int&lt;br&gt;- oSizeNum : Int&lt;br&gt;- oSizeName : String&lt;br&gt;- oSizePrice : Int" style="text;strokeColor=none;fillColor=none;align=left;verticalAlign=top;spacingLeft=4;spacingRight=4;overflow=hidden;rotatable=0;points=[[0,0.5],[1,0.5]];portConstraint=eastwest;whiteSpace=wrap;html=1;" parent="A24sD_70ZPP4tN2usuSs-154" vertex="1">
          <mxGeometry y="26" width="290" height="144" as="geometry" />
        </mxCell>
        <mxCell id="A24sD_70ZPP4tN2usuSs-156" value="" style="line;strokeWidth=1;fillColor=none;align=left;verticalAlign=middle;spacingTop=-1;spacingLeft=3;spacingRight=3;rotatable=0;labelPosition=right;points=[];portConstraint=eastwest;strokeColor=inherit;" parent="A24sD_70ZPP4tN2usuSs-154" vertex="1">
          <mxGeometry y="170" width="290" height="8" as="geometry" />
        </mxCell>
        <mxCell id="A24sD_70ZPP4tN2usuSs-157" value="+OrderDetailVO() : void&lt;br&gt;+OrderDetailVO(String, Int, String, Int, String, Int, String, Int) : void&lt;br&gt;+getter&lt;br&gt;+setter" style="text;strokeColor=none;fillColor=none;align=left;verticalAlign=top;spacingLeft=4;spacingRight=4;overflow=hidden;rotatable=0;points=[[0,0.5],[1,0.5]];portConstraint=eastwest;whiteSpace=wrap;html=1;" parent="A24sD_70ZPP4tN2usuSs-154" vertex="1">
          <mxGeometry y="178" width="290" height="92" as="geometry" />
        </mxCell>
        <mxCell id="HWj-FUaqQjM2sqnTud0V-8" style="edgeStyle=orthogonalEdgeStyle;rounded=0;orthogonalLoop=1;jettySize=auto;html=1;endArrow=none;endFill=0;" parent="1" source="A24sD_70ZPP4tN2usuSs-164" target="A24sD_70ZPP4tN2usuSs-373" edge="1">
          <mxGeometry relative="1" as="geometry" />
        </mxCell>
        <mxCell id="HWj-FUaqQjM2sqnTud0V-13" style="edgeStyle=orthogonalEdgeStyle;rounded=0;orthogonalLoop=1;jettySize=auto;html=1;endArrow=none;endFill=0;" parent="1" source="A24sD_70ZPP4tN2usuSs-164" target="A24sD_70ZPP4tN2usuSs-49" edge="1">
          <mxGeometry relative="1" as="geometry" />
        </mxCell>
        <mxCell id="HWj-FUaqQjM2sqnTud0V-30" style="edgeStyle=orthogonalEdgeStyle;rounded=0;orthogonalLoop=1;jettySize=auto;html=1;endArrow=none;endFill=0;" parent="1" source="A24sD_70ZPP4tN2usuSs-164" target="A24sD_70ZPP4tN2usuSs-386" edge="1">
          <mxGeometry relative="1" as="geometry">
            <Array as="points">
              <mxPoint x="-1390" y="-120" />
              <mxPoint x="-1390" y="1542" />
            </Array>
          </mxGeometry>
        </mxCell>
        <mxCell id="HWj-FUaqQjM2sqnTud0V-104" style="edgeStyle=orthogonalEdgeStyle;rounded=0;orthogonalLoop=1;jettySize=auto;html=1;" parent="1" source="A24sD_70ZPP4tN2usuSs-164" target="A24sD_70ZPP4tN2usuSs-435" edge="1">
          <mxGeometry relative="1" as="geometry">
            <Array as="points">
              <mxPoint x="-1510" y="-148" />
            </Array>
          </mxGeometry>
        </mxCell>
        <mxCell id="A24sD_70ZPP4tN2usuSs-164" value="MainView" style="swimlane;fontStyle=1;align=center;verticalAlign=top;childLayout=stackLayout;horizontal=1;startSize=26;horizontalStack=0;resizeParent=1;resizeParentMax=0;resizeLast=0;collapsible=1;marginBottom=0;whiteSpace=wrap;html=1;fillColor=#e1d5e7;strokeColor=#9673a6;" parent="1" vertex="1">
          <mxGeometry x="-1305" y="-210" width="220" height="124" as="geometry" />
        </mxCell>
        <mxCell id="A24sD_70ZPP4tN2usuSs-166" value="" style="line;strokeWidth=1;fillColor=none;align=left;verticalAlign=middle;spacingTop=-1;spacingLeft=3;spacingRight=3;rotatable=0;labelPosition=right;points=[];portConstraint=eastwest;strokeColor=inherit;" parent="A24sD_70ZPP4tN2usuSs-164" vertex="1">
          <mxGeometry y="26" width="220" height="8" as="geometry" />
        </mxCell>
        <mxCell id="A24sD_70ZPP4tN2usuSs-165" value="- orderBtn : JButton&lt;br&gt;- adminBtn : JButton&lt;br&gt;- mainLogoLabel : JLabel" style="text;strokeColor=none;fillColor=none;align=left;verticalAlign=top;spacingLeft=4;spacingRight=4;overflow=hidden;rotatable=0;points=[[0,0.5],[1,0.5]];portConstraint=eastwest;whiteSpace=wrap;html=1;" parent="A24sD_70ZPP4tN2usuSs-164" vertex="1">
          <mxGeometry y="34" width="220" height="64" as="geometry" />
        </mxCell>
        <mxCell id="A24sD_70ZPP4tN2usuSs-167" value="+ getter" style="text;strokeColor=none;fillColor=none;align=left;verticalAlign=top;spacingLeft=4;spacingRight=4;overflow=hidden;rotatable=0;points=[[0,0.5],[1,0.5]];portConstraint=eastwest;whiteSpace=wrap;html=1;" parent="A24sD_70ZPP4tN2usuSs-164" vertex="1">
          <mxGeometry y="98" width="220" height="26" as="geometry" />
        </mxCell>
        <mxCell id="HWj-FUaqQjM2sqnTud0V-74" style="edgeStyle=orthogonalEdgeStyle;rounded=0;orthogonalLoop=1;jettySize=auto;html=1;endArrow=none;endFill=0;" parent="1" source="A24sD_70ZPP4tN2usuSs-214" target="6R-Llf3wO1dXMThDPdHq-49" edge="1">
          <mxGeometry relative="1" as="geometry">
            <Array as="points">
              <mxPoint x="400" y="984" />
              <mxPoint x="400" y="350" />
            </Array>
          </mxGeometry>
        </mxCell>
        <mxCell id="HWj-FUaqQjM2sqnTud0V-77" style="edgeStyle=orthogonalEdgeStyle;rounded=0;orthogonalLoop=1;jettySize=auto;html=1;endArrow=none;endFill=0;" parent="1" source="A24sD_70ZPP4tN2usuSs-214" target="A24sD_70ZPP4tN2usuSs-61" edge="1">
          <mxGeometry relative="1" as="geometry">
            <Array as="points">
              <mxPoint x="1080" y="983" />
              <mxPoint x="1080" y="1874" />
            </Array>
          </mxGeometry>
        </mxCell>
        <mxCell id="HWj-FUaqQjM2sqnTud0V-92" style="edgeStyle=orthogonalEdgeStyle;rounded=0;orthogonalLoop=1;jettySize=auto;html=1;endArrow=none;endFill=0;" parent="1" source="A24sD_70ZPP4tN2usuSs-214" target="A24sD_70ZPP4tN2usuSs-126" edge="1">
          <mxGeometry relative="1" as="geometry">
            <Array as="points">
              <mxPoint x="400" y="1030" />
            </Array>
          </mxGeometry>
        </mxCell>
        <mxCell id="A24sD_70ZPP4tN2usuSs-214" value="ProductDAO" style="swimlane;fontStyle=1;align=center;verticalAlign=top;childLayout=stackLayout;horizontal=1;startSize=26;horizontalStack=0;resizeParent=1;resizeParentMax=0;resizeLast=0;collapsible=1;marginBottom=0;whiteSpace=wrap;html=1;fillColor=#dae8fc;strokeColor=#6c8ebf;" parent="1" vertex="1">
          <mxGeometry x="635" y="868.5" width="300" height="230" as="geometry" />
        </mxCell>
        <mxCell id="A24sD_70ZPP4tN2usuSs-215" value="- static productDAO:&amp;nbsp;ProductDAO" style="text;strokeColor=none;fillColor=none;align=left;verticalAlign=top;spacingLeft=4;spacingRight=4;overflow=hidden;rotatable=0;points=[[0,0.5],[1,0.5]];portConstraint=eastwest;whiteSpace=wrap;html=1;" parent="A24sD_70ZPP4tN2usuSs-214" vertex="1">
          <mxGeometry y="26" width="300" height="26" as="geometry" />
        </mxCell>
        <mxCell id="A24sD_70ZPP4tN2usuSs-216" value="" style="line;strokeWidth=1;fillColor=none;align=left;verticalAlign=middle;spacingTop=-1;spacingLeft=3;spacingRight=3;rotatable=0;labelPosition=right;points=[];portConstraint=eastwest;strokeColor=inherit;" parent="A24sD_70ZPP4tN2usuSs-214" vertex="1">
          <mxGeometry y="52" width="300" height="8" as="geometry" />
        </mxCell>
        <mxCell id="A24sD_70ZPP4tN2usuSs-217" value="-&amp;nbsp;ProductDAO()&lt;br style=&quot;border-color: var(--border-color);&quot;&gt;&lt;br style=&quot;border-color: var(--border-color);&quot;&gt;+ static getInstance(&amp;nbsp;ProductDAO ) :&amp;nbsp;ProductDAO&lt;br&gt;&lt;br style=&quot;border-color: var(--border-color);&quot;&gt;+ selectAllProduct() : List&amp;lt;ProductVO&amp;gt;&lt;br style=&quot;border-color: var(--border-color);&quot;&gt;+ selectProduct( String ) : ProductVO&amp;nbsp;&lt;br style=&quot;border-color: var(--border-color);&quot;&gt;+ selectProductType( ) : String[]&lt;br style=&quot;border-color: var(--border-color);&quot;&gt;+ insertProduct( ProductVO ) : void&lt;br style=&quot;border-color: var(--border-color);&quot;&gt;+ updateProduct( ProductVO ) : int&lt;br style=&quot;border-color: var(--border-color);&quot;&gt;+ deleteProduct( String ) : int" style="text;strokeColor=none;fillColor=none;align=left;verticalAlign=top;spacingLeft=4;spacingRight=4;overflow=hidden;rotatable=0;points=[[0,0.5],[1,0.5]];portConstraint=eastwest;whiteSpace=wrap;html=1;" parent="A24sD_70ZPP4tN2usuSs-214" vertex="1">
          <mxGeometry y="60" width="300" height="170" as="geometry" />
        </mxCell>
        <mxCell id="HWj-FUaqQjM2sqnTud0V-95" style="edgeStyle=orthogonalEdgeStyle;rounded=0;orthogonalLoop=1;jettySize=auto;html=1;endArrow=none;endFill=0;" parent="1" source="A24sD_70ZPP4tN2usuSs-218" target="A24sD_70ZPP4tN2usuSs-126" edge="1">
          <mxGeometry relative="1" as="geometry">
            <Array as="points">
              <mxPoint x="630" y="2500" />
              <mxPoint x="630" y="1521" />
            </Array>
          </mxGeometry>
        </mxCell>
        <mxCell id="A24sD_70ZPP4tN2usuSs-218" value="InventoryDAO" style="swimlane;fontStyle=1;align=center;verticalAlign=top;childLayout=stackLayout;horizontal=1;startSize=26;horizontalStack=0;resizeParent=1;resizeParentMax=0;resizeLast=0;collapsible=1;marginBottom=0;whiteSpace=wrap;html=1;fillColor=#dae8fc;strokeColor=#6c8ebf;" parent="1" vertex="1">
          <mxGeometry x="301" y="2456" width="300" height="230" as="geometry" />
        </mxCell>
        <mxCell id="A24sD_70ZPP4tN2usuSs-219" value="- static inventoryDAO :&amp;nbsp;InventoryDAO" style="text;strokeColor=none;fillColor=none;align=left;verticalAlign=top;spacingLeft=4;spacingRight=4;overflow=hidden;rotatable=0;points=[[0,0.5],[1,0.5]];portConstraint=eastwest;whiteSpace=wrap;html=1;" parent="A24sD_70ZPP4tN2usuSs-218" vertex="1">
          <mxGeometry y="26" width="300" height="26" as="geometry" />
        </mxCell>
        <mxCell id="A24sD_70ZPP4tN2usuSs-220" value="" style="line;strokeWidth=1;fillColor=none;align=left;verticalAlign=middle;spacingTop=-1;spacingLeft=3;spacingRight=3;rotatable=0;labelPosition=right;points=[];portConstraint=eastwest;strokeColor=inherit;" parent="A24sD_70ZPP4tN2usuSs-218" vertex="1">
          <mxGeometry y="52" width="300" height="8" as="geometry" />
        </mxCell>
        <mxCell id="A24sD_70ZPP4tN2usuSs-221" value="-&amp;nbsp;InventoryDAO()&lt;br&gt;&lt;br&gt;+ static getInstance(&amp;nbsp;InventoryDAO ) :&amp;nbsp;InventoryDAO&lt;br&gt;&lt;br&gt;+ selectAllInventory() : List&amp;lt;InventoryVO&amp;gt;&lt;br style=&quot;border-color: var(--border-color);&quot;&gt;+ selectInventory( String ) : InventoryVO&lt;br style=&quot;border-color: var(--border-color);&quot;&gt;+ selectInventoryType() : String[]&lt;br&gt;&lt;br style=&quot;border-color: var(--border-color);&quot;&gt;+ insertInventory( InventoryVO ) : void&lt;br style=&quot;border-color: var(--border-color);&quot;&gt;+ updateInventory( InventoryVO ) : int&lt;br style=&quot;border-color: var(--border-color);&quot;&gt;+ deleteInventory( String ) : int" style="text;strokeColor=none;fillColor=none;align=left;verticalAlign=top;spacingLeft=4;spacingRight=4;overflow=hidden;rotatable=0;points=[[0,0.5],[1,0.5]];portConstraint=eastwest;whiteSpace=wrap;html=1;" parent="A24sD_70ZPP4tN2usuSs-218" vertex="1">
          <mxGeometry y="60" width="300" height="170" as="geometry" />
        </mxCell>
        <mxCell id="HWj-FUaqQjM2sqnTud0V-54" style="edgeStyle=orthogonalEdgeStyle;rounded=0;orthogonalLoop=1;jettySize=auto;html=1;endArrow=none;endFill=0;" parent="1" source="A24sD_70ZPP4tN2usuSs-222" target="A24sD_70ZPP4tN2usuSs-69" edge="1">
          <mxGeometry relative="1" as="geometry" />
        </mxCell>
        <mxCell id="HWj-FUaqQjM2sqnTud0V-94" style="edgeStyle=orthogonalEdgeStyle;rounded=0;orthogonalLoop=1;jettySize=auto;html=1;endArrow=none;endFill=0;" parent="1" source="A24sD_70ZPP4tN2usuSs-222" target="A24sD_70ZPP4tN2usuSs-126" edge="1">
          <mxGeometry relative="1" as="geometry">
            <Array as="points">
              <mxPoint x="451" y="2010" />
              <mxPoint x="451" y="2010" />
            </Array>
          </mxGeometry>
        </mxCell>
        <mxCell id="A24sD_70ZPP4tN2usuSs-222" value="UserDAO" style="swimlane;fontStyle=1;align=center;verticalAlign=top;childLayout=stackLayout;horizontal=1;startSize=26;horizontalStack=0;resizeParent=1;resizeParentMax=0;resizeLast=0;collapsible=1;marginBottom=0;whiteSpace=wrap;html=1;fillColor=#dae8fc;strokeColor=#6c8ebf;" parent="1" vertex="1">
          <mxGeometry x="301" y="2131" width="300" height="210" as="geometry" />
        </mxCell>
        <mxCell id="A24sD_70ZPP4tN2usuSs-223" value="- static userDAO : UserDAO" style="text;strokeColor=none;fillColor=none;align=left;verticalAlign=top;spacingLeft=4;spacingRight=4;overflow=hidden;rotatable=0;points=[[0,0.5],[1,0.5]];portConstraint=eastwest;whiteSpace=wrap;html=1;" parent="A24sD_70ZPP4tN2usuSs-222" vertex="1">
          <mxGeometry y="26" width="300" height="26" as="geometry" />
        </mxCell>
        <mxCell id="A24sD_70ZPP4tN2usuSs-224" value="" style="line;strokeWidth=1;fillColor=none;align=left;verticalAlign=middle;spacingTop=-1;spacingLeft=3;spacingRight=3;rotatable=0;labelPosition=right;points=[];portConstraint=eastwest;strokeColor=inherit;" parent="A24sD_70ZPP4tN2usuSs-222" vertex="1">
          <mxGeometry y="52" width="300" height="8" as="geometry" />
        </mxCell>
        <mxCell id="A24sD_70ZPP4tN2usuSs-225" value="- UserDAO()&lt;br&gt;&lt;br&gt;+ static getInstance( UserDAO ) : UserDAO&lt;br&gt;&lt;br&gt;+ selectAllUser() : List&amp;lt;UserVO&amp;gt;&lt;br style=&quot;border-color: var(--border-color);&quot;&gt;&amp;nbsp;+ insertUser( UserVO) : void&lt;br style=&quot;border-color: var(--border-color);&quot;&gt;+ updateUser( UserVO ) : int&lt;br style=&quot;border-color: var(--border-color);&quot;&gt;+ deleteUser( String )&amp;nbsp; : int" style="text;strokeColor=none;fillColor=none;align=left;verticalAlign=top;spacingLeft=4;spacingRight=4;overflow=hidden;rotatable=0;points=[[0,0.5],[1,0.5]];portConstraint=eastwest;whiteSpace=wrap;html=1;" parent="A24sD_70ZPP4tN2usuSs-222" vertex="1">
          <mxGeometry y="60" width="300" height="150" as="geometry" />
        </mxCell>
        <mxCell id="HWj-FUaqQjM2sqnTud0V-97" style="edgeStyle=orthogonalEdgeStyle;rounded=0;orthogonalLoop=1;jettySize=auto;html=1;endArrow=none;endFill=0;" parent="1" source="A24sD_70ZPP4tN2usuSs-226" target="A24sD_70ZPP4tN2usuSs-126" edge="1">
          <mxGeometry relative="1" as="geometry">
            <Array as="points">
              <mxPoint x="670" y="3184" />
              <mxPoint x="670" y="1521" />
            </Array>
          </mxGeometry>
        </mxCell>
        <mxCell id="A24sD_70ZPP4tN2usuSs-226" value="SalesDAO" style="swimlane;fontStyle=1;align=center;verticalAlign=top;childLayout=stackLayout;horizontal=1;startSize=26;horizontalStack=0;resizeParent=1;resizeParentMax=0;resizeLast=0;collapsible=1;marginBottom=0;whiteSpace=wrap;html=1;fillColor=#dae8fc;strokeColor=#6c8ebf;" parent="1" vertex="1">
          <mxGeometry x="240" y="3094" width="361" height="180" as="geometry" />
        </mxCell>
        <mxCell id="A24sD_70ZPP4tN2usuSs-227" value="- static salesDAO : SalesDAO" style="text;strokeColor=none;fillColor=none;align=left;verticalAlign=top;spacingLeft=4;spacingRight=4;overflow=hidden;rotatable=0;points=[[0,0.5],[1,0.5]];portConstraint=eastwest;whiteSpace=wrap;html=1;" parent="A24sD_70ZPP4tN2usuSs-226" vertex="1">
          <mxGeometry y="26" width="361" height="26" as="geometry" />
        </mxCell>
        <mxCell id="A24sD_70ZPP4tN2usuSs-228" value="" style="line;strokeWidth=1;fillColor=none;align=left;verticalAlign=middle;spacingTop=-1;spacingLeft=3;spacingRight=3;rotatable=0;labelPosition=right;points=[];portConstraint=eastwest;strokeColor=inherit;" parent="A24sD_70ZPP4tN2usuSs-226" vertex="1">
          <mxGeometry y="52" width="361" height="8" as="geometry" />
        </mxCell>
        <mxCell id="A24sD_70ZPP4tN2usuSs-229" value="- SalesDAO()&lt;br&gt;&lt;br&gt;+ static getInstance( SalesDAO ) : SalesDAO&lt;br&gt;&lt;br&gt;+ selectAllSalesDetail() : List&amp;lt;SalesDetailVO &amp;gt;&lt;br style=&quot;border-color: var(--border-color);&quot;&gt;+ selectSalesDetail( Date, Date, String, String )&lt;br style=&quot;border-color: var(--border-color);&quot;&gt;+ selectMonthSalesDetail( String ) : List&amp;lt;SalesDetailVO&amp;gt;" style="text;strokeColor=none;fillColor=none;align=left;verticalAlign=top;spacingLeft=4;spacingRight=4;overflow=hidden;rotatable=0;points=[[0,0.5],[1,0.5]];portConstraint=eastwest;whiteSpace=wrap;html=1;" parent="A24sD_70ZPP4tN2usuSs-226" vertex="1">
          <mxGeometry y="60" width="361" height="120" as="geometry" />
        </mxCell>
        <mxCell id="HWj-FUaqQjM2sqnTud0V-96" style="edgeStyle=orthogonalEdgeStyle;rounded=0;orthogonalLoop=1;jettySize=auto;html=1;endArrow=none;endFill=0;" parent="1" source="A24sD_70ZPP4tN2usuSs-230" target="A24sD_70ZPP4tN2usuSs-126" edge="1">
          <mxGeometry relative="1" as="geometry">
            <Array as="points">
              <mxPoint x="650" y="2880" />
              <mxPoint x="650" y="1521" />
            </Array>
          </mxGeometry>
        </mxCell>
        <mxCell id="A24sD_70ZPP4tN2usuSs-230" value="OrderStatusDAO" style="swimlane;fontStyle=1;align=center;verticalAlign=top;childLayout=stackLayout;horizontal=1;startSize=26;horizontalStack=0;resizeParent=1;resizeParentMax=0;resizeLast=0;collapsible=1;marginBottom=0;whiteSpace=wrap;html=1;fillColor=#dae8fc;strokeColor=#6c8ebf;" parent="1" vertex="1">
          <mxGeometry x="301" y="2790" width="300" height="180" as="geometry" />
        </mxCell>
        <mxCell id="A24sD_70ZPP4tN2usuSs-231" value="- static orderStatusDAO : OrderStatusDAO" style="text;strokeColor=none;fillColor=none;align=left;verticalAlign=top;spacingLeft=4;spacingRight=4;overflow=hidden;rotatable=0;points=[[0,0.5],[1,0.5]];portConstraint=eastwest;whiteSpace=wrap;html=1;" parent="A24sD_70ZPP4tN2usuSs-230" vertex="1">
          <mxGeometry y="26" width="300" height="26" as="geometry" />
        </mxCell>
        <mxCell id="A24sD_70ZPP4tN2usuSs-232" value="" style="line;strokeWidth=1;fillColor=none;align=left;verticalAlign=middle;spacingTop=-1;spacingLeft=3;spacingRight=3;rotatable=0;labelPosition=right;points=[];portConstraint=eastwest;strokeColor=inherit;" parent="A24sD_70ZPP4tN2usuSs-230" vertex="1">
          <mxGeometry y="52" width="300" height="8" as="geometry" />
        </mxCell>
        <mxCell id="A24sD_70ZPP4tN2usuSs-233" value="- orderStatusDAO()&lt;br&gt;&lt;br&gt;+ static getInstance( orderDAO ) : OrderDAO&lt;br&gt;&lt;br&gt;+ selectAllOrderStatus() : List&amp;lt;OrderStatusVO&amp;gt;&lt;br style=&quot;border-color: var(--border-color);&quot;&gt;+ selectOrderStatus( String ) : OrderStatusVO&amp;nbsp;&lt;br style=&quot;border-color: var(--border-color);&quot;&gt;+ updateOrderStatus( String ) : int" style="text;strokeColor=none;fillColor=none;align=left;verticalAlign=top;spacingLeft=4;spacingRight=4;overflow=hidden;rotatable=0;points=[[0,0.5],[1,0.5]];portConstraint=eastwest;whiteSpace=wrap;html=1;" parent="A24sD_70ZPP4tN2usuSs-230" vertex="1">
          <mxGeometry y="60" width="300" height="120" as="geometry" />
        </mxCell>
        <mxCell id="HWj-FUaqQjM2sqnTud0V-90" style="edgeStyle=orthogonalEdgeStyle;rounded=0;orthogonalLoop=1;jettySize=auto;html=1;endArrow=none;endFill=0;" parent="1" source="A24sD_70ZPP4tN2usuSs-234" target="A24sD_70ZPP4tN2usuSs-126" edge="1">
          <mxGeometry relative="1" as="geometry" />
        </mxCell>
        <mxCell id="A24sD_70ZPP4tN2usuSs-234" value="AdminDAO" style="swimlane;fontStyle=1;align=center;verticalAlign=top;childLayout=stackLayout;horizontal=1;startSize=26;horizontalStack=0;resizeParent=1;resizeParentMax=0;resizeLast=0;collapsible=1;marginBottom=0;whiteSpace=wrap;html=1;fillColor=#dae8fc;strokeColor=#6c8ebf;" parent="1" vertex="1">
          <mxGeometry x="-650" y="1470" width="300" height="160" as="geometry" />
        </mxCell>
        <mxCell id="A24sD_70ZPP4tN2usuSs-235" value="- static adminDAO : AdminDAO" style="text;strokeColor=none;fillColor=none;align=left;verticalAlign=top;spacingLeft=4;spacingRight=4;overflow=hidden;rotatable=0;points=[[0,0.5],[1,0.5]];portConstraint=eastwest;whiteSpace=wrap;html=1;" parent="A24sD_70ZPP4tN2usuSs-234" vertex="1">
          <mxGeometry y="26" width="300" height="26" as="geometry" />
        </mxCell>
        <mxCell id="A24sD_70ZPP4tN2usuSs-236" value="" style="line;strokeWidth=1;fillColor=none;align=left;verticalAlign=middle;spacingTop=-1;spacingLeft=3;spacingRight=3;rotatable=0;labelPosition=right;points=[];portConstraint=eastwest;strokeColor=inherit;" parent="A24sD_70ZPP4tN2usuSs-234" vertex="1">
          <mxGeometry y="52" width="300" height="8" as="geometry" />
        </mxCell>
        <mxCell id="A24sD_70ZPP4tN2usuSs-237" value="- adminDAO()&lt;br&gt;&lt;br&gt;+ static getInstance( adminDAO ) : AdminDAO&lt;br&gt;&lt;br style=&quot;border-color: var(--border-color);&quot;&gt;+ selectAdmin( String, String ) : String" style="text;strokeColor=none;fillColor=none;align=left;verticalAlign=top;spacingLeft=4;spacingRight=4;overflow=hidden;rotatable=0;points=[[0,0.5],[1,0.5]];portConstraint=eastwest;whiteSpace=wrap;html=1;" parent="A24sD_70ZPP4tN2usuSs-234" vertex="1">
          <mxGeometry y="60" width="300" height="100" as="geometry" />
        </mxCell>
        <mxCell id="HWj-FUaqQjM2sqnTud0V-49" style="edgeStyle=orthogonalEdgeStyle;rounded=0;orthogonalLoop=1;jettySize=auto;html=1;endArrow=none;endFill=0;" parent="1" source="A24sD_70ZPP4tN2usuSs-238" target="A24sD_70ZPP4tN2usuSs-53" edge="1">
          <mxGeometry relative="1" as="geometry" />
        </mxCell>
        <mxCell id="HWj-FUaqQjM2sqnTud0V-91" style="edgeStyle=orthogonalEdgeStyle;rounded=0;orthogonalLoop=1;jettySize=auto;html=1;endArrow=none;endFill=0;" parent="1" source="A24sD_70ZPP4tN2usuSs-238" target="A24sD_70ZPP4tN2usuSs-126" edge="1">
          <mxGeometry relative="1" as="geometry">
            <Array as="points">
              <mxPoint x="320" y="1003" />
            </Array>
          </mxGeometry>
        </mxCell>
        <mxCell id="A24sD_70ZPP4tN2usuSs-238" value="PaymentDAO" style="swimlane;fontStyle=1;align=center;verticalAlign=top;childLayout=stackLayout;horizontal=1;startSize=26;horizontalStack=0;resizeParent=1;resizeParentMax=0;resizeLast=0;collapsible=1;marginBottom=0;whiteSpace=wrap;html=1;fillColor=#dae8fc;strokeColor=#6c8ebf;" parent="1" vertex="1">
          <mxGeometry x="-90" y="903" width="300" height="200" as="geometry" />
        </mxCell>
        <mxCell id="A24sD_70ZPP4tN2usuSs-239" value="- static paymentDAO : PaymentDAO" style="text;strokeColor=none;fillColor=none;align=left;verticalAlign=top;spacingLeft=4;spacingRight=4;overflow=hidden;rotatable=0;points=[[0,0.5],[1,0.5]];portConstraint=eastwest;whiteSpace=wrap;html=1;" parent="A24sD_70ZPP4tN2usuSs-238" vertex="1">
          <mxGeometry y="26" width="300" height="26" as="geometry" />
        </mxCell>
        <mxCell id="A24sD_70ZPP4tN2usuSs-240" value="" style="line;strokeWidth=1;fillColor=none;align=left;verticalAlign=middle;spacingTop=-1;spacingLeft=3;spacingRight=3;rotatable=0;labelPosition=right;points=[];portConstraint=eastwest;strokeColor=inherit;" parent="A24sD_70ZPP4tN2usuSs-238" vertex="1">
          <mxGeometry y="52" width="300" height="8" as="geometry" />
        </mxCell>
        <mxCell id="A24sD_70ZPP4tN2usuSs-241" value="- paymentDAO()&lt;br&gt;&lt;br&gt;+ static getInstance( paymentDAO ) : PaymentDAO&lt;br&gt;&lt;br&gt;+ selectUser( String, String ) : UserVO&lt;br style=&quot;border-color: var(--border-color);&quot;&gt;+ insertOrder() : void&lt;br style=&quot;border-color: var(--border-color);&quot;&gt;+ insertOrderDetail( OrderDetailVO ) : void&lt;br&gt;+ insertPayment( PaymentVO ) : void&amp;nbsp;" style="text;strokeColor=none;fillColor=none;align=left;verticalAlign=top;spacingLeft=4;spacingRight=4;overflow=hidden;rotatable=0;points=[[0,0.5],[1,0.5]];portConstraint=eastwest;whiteSpace=wrap;html=1;" parent="A24sD_70ZPP4tN2usuSs-238" vertex="1">
          <mxGeometry y="60" width="300" height="140" as="geometry" />
        </mxCell>
        <mxCell id="HWj-FUaqQjM2sqnTud0V-9" style="edgeStyle=orthogonalEdgeStyle;rounded=0;orthogonalLoop=1;jettySize=auto;html=1;endArrow=none;endFill=0;" parent="1" source="A24sD_70ZPP4tN2usuSs-373" target="A24sD_70ZPP4tN2usuSs-405" edge="1">
          <mxGeometry relative="1" as="geometry" />
        </mxCell>
        <mxCell id="HWj-FUaqQjM2sqnTud0V-11" style="edgeStyle=orthogonalEdgeStyle;rounded=0;orthogonalLoop=1;jettySize=auto;html=1;entryX=0;entryY=0.5;entryDx=0;entryDy=0;endArrow=none;endFill=0;" parent="1" source="A24sD_70ZPP4tN2usuSs-373" target="A24sD_70ZPP4tN2usuSs-411" edge="1">
          <mxGeometry relative="1" as="geometry">
            <Array as="points">
              <mxPoint x="-1040" y="128" />
              <mxPoint x="-1040" y="352" />
            </Array>
          </mxGeometry>
        </mxCell>
        <mxCell id="HWj-FUaqQjM2sqnTud0V-20" style="edgeStyle=orthogonalEdgeStyle;rounded=0;orthogonalLoop=1;jettySize=auto;html=1;endArrow=none;endFill=0;" parent="1" source="A24sD_70ZPP4tN2usuSs-373" target="A24sD_70ZPP4tN2usuSs-45" edge="1">
          <mxGeometry relative="1" as="geometry">
            <Array as="points">
              <mxPoint x="-1210" y="650" />
            </Array>
          </mxGeometry>
        </mxCell>
        <mxCell id="HWj-FUaqQjM2sqnTud0V-99" style="edgeStyle=orthogonalEdgeStyle;rounded=0;orthogonalLoop=1;jettySize=auto;html=1;" parent="1" source="A24sD_70ZPP4tN2usuSs-373" target="A24sD_70ZPP4tN2usuSs-435" edge="1">
          <mxGeometry relative="1" as="geometry">
            <Array as="points">
              <mxPoint x="-1540" y="128" />
            </Array>
          </mxGeometry>
        </mxCell>
        <mxCell id="A24sD_70ZPP4tN2usuSs-373" value="MenuView" style="swimlane;fontStyle=1;align=center;verticalAlign=top;childLayout=stackLayout;horizontal=1;startSize=26;horizontalStack=0;resizeParent=1;resizeParentMax=0;resizeLast=0;collapsible=1;marginBottom=0;whiteSpace=wrap;html=1;fillColor=#e1d5e7;strokeColor=#9673a6;" parent="1" vertex="1">
          <mxGeometry x="-1320" y="-4" width="250" height="264" as="geometry" />
        </mxCell>
        <mxCell id="A24sD_70ZPP4tN2usuSs-374" value="- static menuSelectedList : List&amp;lt;menuVO&amp;gt;&lt;br&gt;&lt;br&gt;- cofBtn : JButton&lt;br style=&quot;border-color: var(--border-color);&quot;&gt;- bevBtn : JButton&lt;br style=&quot;border-color: var(--border-color);&quot;&gt;- desBtn : JButton&lt;br&gt;- cancelBtn : JButton&lt;br style=&quot;border-color: var(--border-color);&quot;&gt;&lt;br style=&quot;border-color: var(--border-color);&quot;&gt;- orderSheetTextField : JTable&lt;br&gt;- orderSheetDtm : defaultTableModel&lt;br style=&quot;border-color: var(--border-color);&quot;&gt;- orderSheetScroll : JScrollPane&lt;br style=&quot;border-color: var(--border-color);&quot;&gt;&lt;br style=&quot;border-color: var(--border-color);&quot;&gt;- priceLabel : JLabel&lt;br style=&quot;border-color: var(--border-color);&quot;&gt;- purchaseBtn : JButton" style="text;strokeColor=none;fillColor=none;align=left;verticalAlign=top;spacingLeft=4;spacingRight=4;overflow=hidden;rotatable=0;points=[[0,0.5],[1,0.5]];portConstraint=eastwest;whiteSpace=wrap;html=1;" parent="A24sD_70ZPP4tN2usuSs-373" vertex="1">
          <mxGeometry y="26" width="250" height="204" as="geometry" />
        </mxCell>
        <mxCell id="A24sD_70ZPP4tN2usuSs-375" value="" style="line;strokeWidth=1;fillColor=none;align=left;verticalAlign=middle;spacingTop=-1;spacingLeft=3;spacingRight=3;rotatable=0;labelPosition=right;points=[];portConstraint=eastwest;strokeColor=inherit;" parent="A24sD_70ZPP4tN2usuSs-373" vertex="1">
          <mxGeometry y="230" width="250" height="8" as="geometry" />
        </mxCell>
        <mxCell id="A24sD_70ZPP4tN2usuSs-376" value="+ method(type): type" style="text;strokeColor=none;fillColor=none;align=left;verticalAlign=top;spacingLeft=4;spacingRight=4;overflow=hidden;rotatable=0;points=[[0,0.5],[1,0.5]];portConstraint=eastwest;whiteSpace=wrap;html=1;" parent="A24sD_70ZPP4tN2usuSs-373" vertex="1">
          <mxGeometry y="238" width="250" height="26" as="geometry" />
        </mxCell>
        <mxCell id="A24sD_70ZPP4tN2usuSs-377" value="OptionMenuView" style="swimlane;fontStyle=1;align=center;verticalAlign=top;childLayout=stackLayout;horizontal=1;startSize=26;horizontalStack=0;resizeParent=1;resizeParentMax=0;resizeLast=0;collapsible=1;marginBottom=0;whiteSpace=wrap;html=1;fillColor=#e1d5e7;strokeColor=#9673a6;" parent="1" vertex="1">
          <mxGeometry x="-523" y="500" width="220" height="404" as="geometry" />
        </mxCell>
        <mxCell id="A24sD_70ZPP4tN2usuSs-378" value="- mainImageLabel : JLabel&lt;br&gt;- productNameLabel : JLabel&lt;br&gt;&lt;br&gt;- quantityTextField : JTextField&lt;br&gt;&lt;br&gt;- minusBtn : JButton&lt;br&gt;- plusBtn : JButton&lt;br&gt;&lt;br&gt;- priceTextField : JTextField&lt;br&gt;&lt;br&gt;- hotBtn : JButton&lt;br&gt;- iceBtn : JButton&lt;br&gt;&lt;br&gt;- regularBtn : JButton&lt;br&gt;- extraBtn : JButton&lt;br&gt;&lt;br&gt;- addShotBtn : JButton&lt;br&gt;- addWhippingBtn : JButton&lt;br&gt;- addSyrupBtn : JButton&lt;br&gt;&lt;br&gt;- cancelBtn : JButton&lt;br&gt;- selectionBtn : JButton" style="text;strokeColor=none;fillColor=none;align=left;verticalAlign=top;spacingLeft=4;spacingRight=4;overflow=hidden;rotatable=0;points=[[0,0.5],[1,0.5]];portConstraint=eastwest;whiteSpace=wrap;html=1;" parent="A24sD_70ZPP4tN2usuSs-377" vertex="1">
          <mxGeometry y="26" width="220" height="344" as="geometry" />
        </mxCell>
        <mxCell id="A24sD_70ZPP4tN2usuSs-379" value="" style="line;strokeWidth=1;fillColor=none;align=left;verticalAlign=middle;spacingTop=-1;spacingLeft=3;spacingRight=3;rotatable=0;labelPosition=right;points=[];portConstraint=eastwest;strokeColor=inherit;" parent="A24sD_70ZPP4tN2usuSs-377" vertex="1">
          <mxGeometry y="370" width="220" height="8" as="geometry" />
        </mxCell>
        <mxCell id="A24sD_70ZPP4tN2usuSs-380" value="+ method(type): type" style="text;strokeColor=none;fillColor=none;align=left;verticalAlign=top;spacingLeft=4;spacingRight=4;overflow=hidden;rotatable=0;points=[[0,0.5],[1,0.5]];portConstraint=eastwest;whiteSpace=wrap;html=1;" parent="A24sD_70ZPP4tN2usuSs-377" vertex="1">
          <mxGeometry y="378" width="220" height="26" as="geometry" />
        </mxCell>
        <mxCell id="HWj-FUaqQjM2sqnTud0V-29" style="edgeStyle=orthogonalEdgeStyle;rounded=0;orthogonalLoop=1;jettySize=auto;html=1;endArrow=none;endFill=0;" parent="1" source="A24sD_70ZPP4tN2usuSs-382" target="A24sD_70ZPP4tN2usuSs-53" edge="1">
          <mxGeometry relative="1" as="geometry">
            <Array as="points">
              <mxPoint x="-700" y="1127" />
              <mxPoint x="-700" y="1127" />
            </Array>
          </mxGeometry>
        </mxCell>
        <mxCell id="HWj-FUaqQjM2sqnTud0V-100" style="edgeStyle=orthogonalEdgeStyle;rounded=0;orthogonalLoop=1;jettySize=auto;html=1;" parent="1" source="A24sD_70ZPP4tN2usuSs-382" target="A24sD_70ZPP4tN2usuSs-435" edge="1">
          <mxGeometry relative="1" as="geometry">
            <Array as="points">
              <mxPoint x="-1560" y="1127" />
            </Array>
          </mxGeometry>
        </mxCell>
        <mxCell id="A24sD_70ZPP4tN2usuSs-382" value="PaymentView" style="swimlane;fontStyle=1;align=center;verticalAlign=top;childLayout=stackLayout;horizontal=1;startSize=26;horizontalStack=0;resizeParent=1;resizeParentMax=0;resizeLast=0;collapsible=1;marginBottom=0;whiteSpace=wrap;html=1;fillColor=#e1d5e7;strokeColor=#9673a6;" parent="1" vertex="1">
          <mxGeometry x="-970" y="880" width="220" height="394" as="geometry" />
        </mxCell>
        <mxCell id="A24sD_70ZPP4tN2usuSs-383" value="- cashBtn : JButton&lt;br&gt;- cardBtn : JButton&lt;br&gt;&lt;br&gt;- searchUser : JButton&lt;br&gt;&lt;br&gt;- usePointTextField : JTextField&lt;br&gt;- usePointBtn : JButton&lt;br&gt;- useAvailablePointLabel : JLabel&lt;br&gt;&lt;br&gt;- beforeBtn : JButton&lt;br&gt;&lt;br&gt;- orderSheetLabel : JLabel&lt;br&gt;- orderSheetTable : JTable&lt;br&gt;- orderSheetDtm : DefaultTableModel&lt;br&gt;&lt;br&gt;- orderPriceTextField : JTextField&lt;br&gt;&lt;br&gt;- discountTextField : JTextField&lt;br&gt;&lt;br&gt;- purchasePriceTextField : JTextField&lt;br&gt;&lt;br&gt;- paymentBtn : JButton" style="text;strokeColor=none;fillColor=none;align=left;verticalAlign=top;spacingLeft=4;spacingRight=4;overflow=hidden;rotatable=0;points=[[0,0.5],[1,0.5]];portConstraint=eastwest;whiteSpace=wrap;html=1;" parent="A24sD_70ZPP4tN2usuSs-382" vertex="1">
          <mxGeometry y="26" width="220" height="334" as="geometry" />
        </mxCell>
        <mxCell id="A24sD_70ZPP4tN2usuSs-384" value="" style="line;strokeWidth=1;fillColor=none;align=left;verticalAlign=middle;spacingTop=-1;spacingLeft=3;spacingRight=3;rotatable=0;labelPosition=right;points=[];portConstraint=eastwest;strokeColor=inherit;" parent="A24sD_70ZPP4tN2usuSs-382" vertex="1">
          <mxGeometry y="360" width="220" height="8" as="geometry" />
        </mxCell>
        <mxCell id="A24sD_70ZPP4tN2usuSs-385" value="+ method(type): type" style="text;strokeColor=none;fillColor=none;align=left;verticalAlign=top;spacingLeft=4;spacingRight=4;overflow=hidden;rotatable=0;points=[[0,0.5],[1,0.5]];portConstraint=eastwest;whiteSpace=wrap;html=1;" parent="A24sD_70ZPP4tN2usuSs-382" vertex="1">
          <mxGeometry y="368" width="220" height="26" as="geometry" />
        </mxCell>
        <mxCell id="HWj-FUaqQjM2sqnTud0V-35" style="edgeStyle=orthogonalEdgeStyle;rounded=0;orthogonalLoop=1;jettySize=auto;html=1;endArrow=none;endFill=0;" parent="1" source="A24sD_70ZPP4tN2usuSs-386" target="A24sD_70ZPP4tN2usuSs-57" edge="1">
          <mxGeometry relative="1" as="geometry" />
        </mxCell>
        <mxCell id="HWj-FUaqQjM2sqnTud0V-102" style="edgeStyle=orthogonalEdgeStyle;rounded=0;orthogonalLoop=1;jettySize=auto;html=1;" parent="1" source="A24sD_70ZPP4tN2usuSs-386" target="A24sD_70ZPP4tN2usuSs-435" edge="1">
          <mxGeometry relative="1" as="geometry">
            <Array as="points">
              <mxPoint x="-1590" y="1560" />
            </Array>
          </mxGeometry>
        </mxCell>
        <mxCell id="A24sD_70ZPP4tN2usuSs-386" value="AdLoginView" style="swimlane;fontStyle=1;align=center;verticalAlign=top;childLayout=stackLayout;horizontal=1;startSize=26;horizontalStack=0;resizeParent=1;resizeParentMax=0;resizeLast=0;collapsible=1;marginBottom=0;whiteSpace=wrap;html=1;fillColor=#e1d5e7;strokeColor=#9673a6;" parent="1" vertex="1">
          <mxGeometry x="-1320" y="1488" width="220" height="204" as="geometry" />
        </mxCell>
        <mxCell id="A24sD_70ZPP4tN2usuSs-387" value="- homeBtn : JButton&lt;br style=&quot;border-color: var(--border-color);&quot;&gt;- loginBtn : Jbutton&lt;br style=&quot;border-color: var(--border-color);&quot;&gt;&lt;br style=&quot;border-color: var(--border-color);&quot;&gt;-idField : JTextField&lt;br style=&quot;border-color: var(--border-color);&quot;&gt;&lt;br style=&quot;border-color: var(--border-color);&quot;&gt;- pwField : JPasswordField" style="text;strokeColor=none;fillColor=none;align=left;verticalAlign=top;spacingLeft=4;spacingRight=4;overflow=hidden;rotatable=0;points=[[0,0.5],[1,0.5]];portConstraint=eastwest;whiteSpace=wrap;html=1;" parent="A24sD_70ZPP4tN2usuSs-386" vertex="1">
          <mxGeometry y="26" width="220" height="144" as="geometry" />
        </mxCell>
        <mxCell id="A24sD_70ZPP4tN2usuSs-388" value="" style="line;strokeWidth=1;fillColor=none;align=left;verticalAlign=middle;spacingTop=-1;spacingLeft=3;spacingRight=3;rotatable=0;labelPosition=right;points=[];portConstraint=eastwest;strokeColor=inherit;" parent="A24sD_70ZPP4tN2usuSs-386" vertex="1">
          <mxGeometry y="170" width="220" height="8" as="geometry" />
        </mxCell>
        <mxCell id="A24sD_70ZPP4tN2usuSs-389" value="+ method(type): type" style="text;strokeColor=none;fillColor=none;align=left;verticalAlign=top;spacingLeft=4;spacingRight=4;overflow=hidden;rotatable=0;points=[[0,0.5],[1,0.5]];portConstraint=eastwest;whiteSpace=wrap;html=1;" parent="A24sD_70ZPP4tN2usuSs-386" vertex="1">
          <mxGeometry y="178" width="220" height="26" as="geometry" />
        </mxCell>
        <mxCell id="HWj-FUaqQjM2sqnTud0V-24" style="edgeStyle=orthogonalEdgeStyle;rounded=0;orthogonalLoop=1;jettySize=auto;html=1;endArrow=none;endFill=0;" parent="1" source="A24sD_70ZPP4tN2usuSs-390" target="A24sD_70ZPP4tN2usuSs-420" edge="1">
          <mxGeometry relative="1" as="geometry">
            <Array as="points">
              <mxPoint x="-692" y="1831" />
              <mxPoint x="-692" y="1810" />
            </Array>
          </mxGeometry>
        </mxCell>
        <mxCell id="HWj-FUaqQjM2sqnTud0V-25" style="edgeStyle=orthogonalEdgeStyle;rounded=0;orthogonalLoop=1;jettySize=auto;html=1;entryX=0;entryY=0.5;entryDx=0;entryDy=0;endArrow=none;endFill=0;" parent="1" source="A24sD_70ZPP4tN2usuSs-390" target="A24sD_70ZPP4tN2usuSs-399" edge="1">
          <mxGeometry relative="1" as="geometry">
            <Array as="points">
              <mxPoint x="-700" y="1831" />
              <mxPoint x="-700" y="2254" />
            </Array>
          </mxGeometry>
        </mxCell>
        <mxCell id="HWj-FUaqQjM2sqnTud0V-26" style="edgeStyle=orthogonalEdgeStyle;rounded=0;orthogonalLoop=1;jettySize=auto;html=1;entryX=0;entryY=0.5;entryDx=0;entryDy=0;endArrow=none;endFill=0;" parent="1" source="A24sD_70ZPP4tN2usuSs-390" target="A24sD_70ZPP4tN2usuSs-395" edge="1">
          <mxGeometry relative="1" as="geometry">
            <Array as="points">
              <mxPoint x="-710" y="1831" />
              <mxPoint x="-710" y="2584" />
            </Array>
          </mxGeometry>
        </mxCell>
        <mxCell id="HWj-FUaqQjM2sqnTud0V-27" style="edgeStyle=orthogonalEdgeStyle;rounded=0;orthogonalLoop=1;jettySize=auto;html=1;endArrow=none;endFill=0;" parent="1" source="A24sD_70ZPP4tN2usuSs-390" target="A24sD_70ZPP4tN2usuSs-436" edge="1">
          <mxGeometry relative="1" as="geometry">
            <Array as="points">
              <mxPoint x="-720" y="1831" />
              <mxPoint x="-720" y="2853" />
            </Array>
          </mxGeometry>
        </mxCell>
        <mxCell id="HWj-FUaqQjM2sqnTud0V-28" style="edgeStyle=orthogonalEdgeStyle;rounded=0;orthogonalLoop=1;jettySize=auto;html=1;endArrow=none;endFill=0;" parent="1" source="A24sD_70ZPP4tN2usuSs-390" target="A24sD_70ZPP4tN2usuSs-440" edge="1">
          <mxGeometry relative="1" as="geometry">
            <Array as="points">
              <mxPoint x="-730" y="1831" />
              <mxPoint x="-730" y="3243" />
            </Array>
          </mxGeometry>
        </mxCell>
        <mxCell id="HWj-FUaqQjM2sqnTud0V-105" style="edgeStyle=orthogonalEdgeStyle;rounded=0;orthogonalLoop=1;jettySize=auto;html=1;entryX=0.127;entryY=1;entryDx=0;entryDy=0;entryPerimeter=0;" parent="1" source="A24sD_70ZPP4tN2usuSs-390" target="A24sD_70ZPP4tN2usuSs-435" edge="1">
          <mxGeometry relative="1" as="geometry">
            <Array as="points">
              <mxPoint x="-1620" y="1831" />
              <mxPoint x="-1620" y="-237" />
            </Array>
          </mxGeometry>
        </mxCell>
        <mxCell id="A24sD_70ZPP4tN2usuSs-390" value="AdminTabView" style="swimlane;fontStyle=1;align=center;verticalAlign=top;childLayout=stackLayout;horizontal=1;startSize=26;horizontalStack=0;resizeParent=1;resizeParentMax=0;resizeLast=0;collapsible=1;marginBottom=0;whiteSpace=wrap;html=1;fillColor=#e1d5e7;strokeColor=#9673a6;" parent="1" vertex="1">
          <mxGeometry x="-975" y="1754" width="220" height="154" as="geometry" />
        </mxCell>
        <mxCell id="A24sD_70ZPP4tN2usuSs-391" value="-&amp;nbsp; productBtn : JButton&lt;br style=&quot;border-color: var(--border-color);&quot;&gt;-&amp;nbsp; inventoryBtn : JButton&lt;br style=&quot;border-color: var(--border-color);&quot;&gt;-&amp;nbsp; userBtn : JButton&lt;br style=&quot;border-color: var(--border-color);&quot;&gt;-&amp;nbsp; orderBtn : JButton&lt;br style=&quot;border-color: var(--border-color);&quot;&gt;-&amp;nbsp; salesBtn : JButton&lt;br style=&quot;border-color: var(--border-color);&quot;&gt;-&amp;nbsp; homeBtn : JButton&lt;br style=&quot;border-color: var(--border-color);&quot;&gt;&lt;br style=&quot;border-color: var(--border-color);&quot;&gt;" style="text;strokeColor=none;fillColor=none;align=left;verticalAlign=top;spacingLeft=4;spacingRight=4;overflow=hidden;rotatable=0;points=[[0,0.5],[1,0.5]];portConstraint=eastwest;whiteSpace=wrap;html=1;" parent="A24sD_70ZPP4tN2usuSs-390" vertex="1">
          <mxGeometry y="26" width="220" height="94" as="geometry" />
        </mxCell>
        <mxCell id="A24sD_70ZPP4tN2usuSs-392" value="" style="line;strokeWidth=1;fillColor=none;align=left;verticalAlign=middle;spacingTop=-1;spacingLeft=3;spacingRight=3;rotatable=0;labelPosition=right;points=[];portConstraint=eastwest;strokeColor=inherit;" parent="A24sD_70ZPP4tN2usuSs-390" vertex="1">
          <mxGeometry y="120" width="220" height="8" as="geometry" />
        </mxCell>
        <mxCell id="A24sD_70ZPP4tN2usuSs-393" value="+ method(type): type" style="text;strokeColor=none;fillColor=none;align=left;verticalAlign=top;spacingLeft=4;spacingRight=4;overflow=hidden;rotatable=0;points=[[0,0.5],[1,0.5]];portConstraint=eastwest;whiteSpace=wrap;html=1;" parent="A24sD_70ZPP4tN2usuSs-390" vertex="1">
          <mxGeometry y="128" width="220" height="26" as="geometry" />
        </mxCell>
        <mxCell id="HWj-FUaqQjM2sqnTud0V-42" style="edgeStyle=orthogonalEdgeStyle;rounded=0;orthogonalLoop=1;jettySize=auto;html=1;endArrow=none;endFill=0;" parent="1" source="A24sD_70ZPP4tN2usuSs-394" target="A24sD_70ZPP4tN2usuSs-65" edge="1">
          <mxGeometry relative="1" as="geometry">
            <Array as="points">
              <mxPoint x="-350" y="2570" />
              <mxPoint x="-350" y="2570" />
            </Array>
          </mxGeometry>
        </mxCell>
        <mxCell id="HWj-FUaqQjM2sqnTud0V-114" style="edgeStyle=orthogonalEdgeStyle;rounded=0;orthogonalLoop=1;jettySize=auto;html=1;" parent="1" source="A24sD_70ZPP4tN2usuSs-394" edge="1">
          <mxGeometry relative="1" as="geometry">
            <mxPoint x="-320" y="1710" as="targetPoint" />
            <Array as="points">
              <mxPoint x="-319" y="2540" />
              <mxPoint x="-319" y="1710" />
            </Array>
          </mxGeometry>
        </mxCell>
        <mxCell id="A24sD_70ZPP4tN2usuSs-394" value="AdInventoryView" style="swimlane;fontStyle=1;align=center;verticalAlign=top;childLayout=stackLayout;horizontal=1;startSize=26;horizontalStack=0;resizeParent=1;resizeParentMax=0;resizeLast=0;collapsible=1;marginBottom=0;whiteSpace=wrap;html=1;fillColor=#e1d5e7;strokeColor=#9673a6;" parent="1" vertex="1">
          <mxGeometry x="-630" y="2461" width="220" height="234" as="geometry" />
        </mxCell>
        <mxCell id="A24sD_70ZPP4tN2usuSs-395" value="-&amp;nbsp; newBtn : JButton&lt;br style=&quot;border-color: var(--border-color);&quot;&gt;-&amp;nbsp; changeBtn : JButton&lt;br&gt;&lt;br&gt;- inventoryInfoTable : JTable&lt;br&gt;- inventoryInfoDtm : DefaultTablemodel&lt;br style=&quot;border-color: var(--border-color);&quot;&gt;&lt;br style=&quot;border-color: var(--border-color);&quot;&gt;- codeJtf : JTextField&lt;br style=&quot;border-color: var(--border-color);&quot;&gt;- nameJtf : JTextField&lt;br style=&quot;border-color: var(--border-color);&quot;&gt;- quantityJtf : JTextField&lt;br style=&quot;border-color: var(--border-color);&quot;&gt;&lt;br style=&quot;border-color: var(--border-color);&quot;&gt;- jcbType : JComboBox" style="text;strokeColor=none;fillColor=none;align=left;verticalAlign=top;spacingLeft=4;spacingRight=4;overflow=hidden;rotatable=0;points=[[0,0.5],[1,0.5]];portConstraint=eastwest;whiteSpace=wrap;html=1;" parent="A24sD_70ZPP4tN2usuSs-394" vertex="1">
          <mxGeometry y="26" width="220" height="174" as="geometry" />
        </mxCell>
        <mxCell id="A24sD_70ZPP4tN2usuSs-396" value="" style="line;strokeWidth=1;fillColor=none;align=left;verticalAlign=middle;spacingTop=-1;spacingLeft=3;spacingRight=3;rotatable=0;labelPosition=right;points=[];portConstraint=eastwest;strokeColor=inherit;" parent="A24sD_70ZPP4tN2usuSs-394" vertex="1">
          <mxGeometry y="200" width="220" height="8" as="geometry" />
        </mxCell>
        <mxCell id="A24sD_70ZPP4tN2usuSs-397" value="+ method(type): type" style="text;strokeColor=none;fillColor=none;align=left;verticalAlign=top;spacingLeft=4;spacingRight=4;overflow=hidden;rotatable=0;points=[[0,0.5],[1,0.5]];portConstraint=eastwest;whiteSpace=wrap;html=1;" parent="A24sD_70ZPP4tN2usuSs-394" vertex="1">
          <mxGeometry y="208" width="220" height="26" as="geometry" />
        </mxCell>
        <mxCell id="HWj-FUaqQjM2sqnTud0V-41" style="edgeStyle=orthogonalEdgeStyle;rounded=0;orthogonalLoop=1;jettySize=auto;html=1;endArrow=none;endFill=0;" parent="1" source="A24sD_70ZPP4tN2usuSs-398" target="A24sD_70ZPP4tN2usuSs-69" edge="1">
          <mxGeometry relative="1" as="geometry">
            <Array as="points">
              <mxPoint x="-370" y="2236" />
              <mxPoint x="-370" y="2236" />
            </Array>
          </mxGeometry>
        </mxCell>
        <mxCell id="HWj-FUaqQjM2sqnTud0V-113" style="edgeStyle=orthogonalEdgeStyle;rounded=0;orthogonalLoop=1;jettySize=auto;html=1;" parent="1" source="A24sD_70ZPP4tN2usuSs-398" target="HWj-FUaqQjM2sqnTud0V-111" edge="1">
          <mxGeometry relative="1" as="geometry">
            <Array as="points">
              <mxPoint x="-340" y="2200" />
            </Array>
          </mxGeometry>
        </mxCell>
        <mxCell id="A24sD_70ZPP4tN2usuSs-398" value="AdUserView" style="swimlane;fontStyle=1;align=center;verticalAlign=top;childLayout=stackLayout;horizontal=1;startSize=26;horizontalStack=0;resizeParent=1;resizeParentMax=0;resizeLast=0;collapsible=1;marginBottom=0;whiteSpace=wrap;html=1;fillColor=#e1d5e7;strokeColor=#9673a6;" parent="1" vertex="1">
          <mxGeometry x="-630" y="2131" width="220" height="224" as="geometry" />
        </mxCell>
        <mxCell id="A24sD_70ZPP4tN2usuSs-399" value="-&amp;nbsp; newBtn : JButton&lt;br style=&quot;border-color: var(--border-color);&quot;&gt;-&amp;nbsp; changeBtn : JButton&lt;br style=&quot;border-color: var(--border-color);&quot;&gt;- deleteBtn : JButton&lt;br&gt;&lt;br&gt;- userInfoTable : JTable&lt;br&gt;- userInfoDtm : DefaultTableModel&lt;br style=&quot;border-color: var(--border-color);&quot;&gt;&lt;br style=&quot;border-color: var(--border-color);&quot;&gt;- numJtf : JTextField&lt;br style=&quot;border-color: var(--border-color);&quot;&gt;- telJtf : JTextField&lt;br style=&quot;border-color: var(--border-color);&quot;&gt;- pointJtf : JTextField&lt;br style=&quot;border-color: var(--border-color);&quot;&gt;- dateJtf : JTextField" style="text;strokeColor=none;fillColor=none;align=left;verticalAlign=top;spacingLeft=4;spacingRight=4;overflow=hidden;rotatable=0;points=[[0,0.5],[1,0.5]];portConstraint=eastwest;whiteSpace=wrap;html=1;" parent="A24sD_70ZPP4tN2usuSs-398" vertex="1">
          <mxGeometry y="26" width="220" height="164" as="geometry" />
        </mxCell>
        <mxCell id="A24sD_70ZPP4tN2usuSs-400" value="" style="line;strokeWidth=1;fillColor=none;align=left;verticalAlign=middle;spacingTop=-1;spacingLeft=3;spacingRight=3;rotatable=0;labelPosition=right;points=[];portConstraint=eastwest;strokeColor=inherit;" parent="A24sD_70ZPP4tN2usuSs-398" vertex="1">
          <mxGeometry y="190" width="220" height="8" as="geometry" />
        </mxCell>
        <mxCell id="A24sD_70ZPP4tN2usuSs-401" value="+ method(type): type" style="text;strokeColor=none;fillColor=none;align=left;verticalAlign=top;spacingLeft=4;spacingRight=4;overflow=hidden;rotatable=0;points=[[0,0.5],[1,0.5]];portConstraint=eastwest;whiteSpace=wrap;html=1;" parent="A24sD_70ZPP4tN2usuSs-398" vertex="1">
          <mxGeometry y="198" width="220" height="26" as="geometry" />
        </mxCell>
        <mxCell id="HWj-FUaqQjM2sqnTud0V-16" style="edgeStyle=orthogonalEdgeStyle;rounded=0;orthogonalLoop=1;jettySize=auto;html=1;endArrow=none;endFill=0;" parent="1" source="A24sD_70ZPP4tN2usuSs-405" target="6R-Llf3wO1dXMThDPdHq-49" edge="1">
          <mxGeometry relative="1" as="geometry">
            <Array as="points">
              <mxPoint x="-610" y="48" />
              <mxPoint x="-610" y="350" />
            </Array>
          </mxGeometry>
        </mxCell>
        <mxCell id="HWj-FUaqQjM2sqnTud0V-106" style="edgeStyle=orthogonalEdgeStyle;rounded=0;orthogonalLoop=1;jettySize=auto;html=1;" parent="1" source="A24sD_70ZPP4tN2usuSs-405" edge="1">
          <mxGeometry relative="1" as="geometry">
            <mxPoint x="-690" y="-60" as="targetPoint" />
            <Array as="points">
              <mxPoint x="-690" y="30" />
              <mxPoint x="-690" y="-57" />
            </Array>
          </mxGeometry>
        </mxCell>
        <mxCell id="A24sD_70ZPP4tN2usuSs-405" value="CoffeeMenuView" style="swimlane;fontStyle=1;align=center;verticalAlign=top;childLayout=stackLayout;horizontal=1;startSize=26;horizontalStack=0;resizeParent=1;resizeParentMax=0;resizeLast=0;collapsible=1;marginBottom=0;whiteSpace=wrap;html=1;fillColor=#e1d5e7;strokeColor=#9673a6;" parent="1" vertex="1">
          <mxGeometry x="-970" y="-4" width="220" height="104" as="geometry" />
        </mxCell>
        <mxCell id="A24sD_70ZPP4tN2usuSs-406" value="- menuNameLabel : JLabel&lt;br&gt;- menuBtnList :List&amp;lt; JButton&amp;gt;" style="text;strokeColor=none;fillColor=none;align=left;verticalAlign=top;spacingLeft=4;spacingRight=4;overflow=hidden;rotatable=0;points=[[0,0.5],[1,0.5]];portConstraint=eastwest;whiteSpace=wrap;html=1;" parent="A24sD_70ZPP4tN2usuSs-405" vertex="1">
          <mxGeometry y="26" width="220" height="44" as="geometry" />
        </mxCell>
        <mxCell id="A24sD_70ZPP4tN2usuSs-407" value="" style="line;strokeWidth=1;fillColor=none;align=left;verticalAlign=middle;spacingTop=-1;spacingLeft=3;spacingRight=3;rotatable=0;labelPosition=right;points=[];portConstraint=eastwest;strokeColor=inherit;" parent="A24sD_70ZPP4tN2usuSs-405" vertex="1">
          <mxGeometry y="70" width="220" height="8" as="geometry" />
        </mxCell>
        <mxCell id="A24sD_70ZPP4tN2usuSs-408" value="+ method(type): type" style="text;strokeColor=none;fillColor=none;align=left;verticalAlign=top;spacingLeft=4;spacingRight=4;overflow=hidden;rotatable=0;points=[[0,0.5],[1,0.5]];portConstraint=eastwest;whiteSpace=wrap;html=1;" parent="A24sD_70ZPP4tN2usuSs-405" vertex="1">
          <mxGeometry y="78" width="220" height="26" as="geometry" />
        </mxCell>
        <mxCell id="HWj-FUaqQjM2sqnTud0V-18" style="edgeStyle=orthogonalEdgeStyle;rounded=0;orthogonalLoop=1;jettySize=auto;html=1;endArrow=none;endFill=0;" parent="1" source="A24sD_70ZPP4tN2usuSs-410" target="6R-Llf3wO1dXMThDPdHq-49" edge="1">
          <mxGeometry relative="1" as="geometry">
            <Array as="points">
              <mxPoint x="-660" y="350" />
              <mxPoint x="-660" y="350" />
            </Array>
          </mxGeometry>
        </mxCell>
        <mxCell id="HWj-FUaqQjM2sqnTud0V-109" style="edgeStyle=orthogonalEdgeStyle;rounded=0;orthogonalLoop=1;jettySize=auto;html=1;entryX=0.75;entryY=1;entryDx=0;entryDy=0;" parent="1" source="A24sD_70ZPP4tN2usuSs-410" target="A24sD_70ZPP4tN2usuSs-427" edge="1">
          <mxGeometry relative="1" as="geometry">
            <Array as="points">
              <mxPoint x="-649" y="330" />
            </Array>
          </mxGeometry>
        </mxCell>
        <mxCell id="A24sD_70ZPP4tN2usuSs-410" value="BeverageMenuView" style="swimlane;fontStyle=1;align=center;verticalAlign=top;childLayout=stackLayout;horizontal=1;startSize=26;horizontalStack=0;resizeParent=1;resizeParentMax=0;resizeLast=0;collapsible=1;marginBottom=0;whiteSpace=wrap;html=1;fillColor=#e1d5e7;strokeColor=#9673a6;" parent="1" vertex="1">
          <mxGeometry x="-970" y="304" width="220" height="104" as="geometry" />
        </mxCell>
        <mxCell id="A24sD_70ZPP4tN2usuSs-411" value="- menuNameLabel : JLabel&lt;br&gt;- menuBtnList :List&amp;lt; JButton&amp;gt;" style="text;strokeColor=none;fillColor=none;align=left;verticalAlign=top;spacingLeft=4;spacingRight=4;overflow=hidden;rotatable=0;points=[[0,0.5],[1,0.5]];portConstraint=eastwest;whiteSpace=wrap;html=1;" parent="A24sD_70ZPP4tN2usuSs-410" vertex="1">
          <mxGeometry y="26" width="220" height="44" as="geometry" />
        </mxCell>
        <mxCell id="A24sD_70ZPP4tN2usuSs-412" value="" style="line;strokeWidth=1;fillColor=none;align=left;verticalAlign=middle;spacingTop=-1;spacingLeft=3;spacingRight=3;rotatable=0;labelPosition=right;points=[];portConstraint=eastwest;strokeColor=inherit;" parent="A24sD_70ZPP4tN2usuSs-410" vertex="1">
          <mxGeometry y="70" width="220" height="8" as="geometry" />
        </mxCell>
        <mxCell id="A24sD_70ZPP4tN2usuSs-413" value="+ method(type): type" style="text;strokeColor=none;fillColor=none;align=left;verticalAlign=top;spacingLeft=4;spacingRight=4;overflow=hidden;rotatable=0;points=[[0,0.5],[1,0.5]];portConstraint=eastwest;whiteSpace=wrap;html=1;" parent="A24sD_70ZPP4tN2usuSs-410" vertex="1">
          <mxGeometry y="78" width="220" height="26" as="geometry" />
        </mxCell>
        <mxCell id="HWj-FUaqQjM2sqnTud0V-17" style="edgeStyle=orthogonalEdgeStyle;rounded=0;orthogonalLoop=1;jettySize=auto;html=1;endArrow=none;endFill=0;" parent="1" source="A24sD_70ZPP4tN2usuSs-415" target="6R-Llf3wO1dXMThDPdHq-49" edge="1">
          <mxGeometry relative="1" as="geometry">
            <Array as="points">
              <mxPoint x="-610" y="202" />
              <mxPoint x="-610" y="350" />
            </Array>
          </mxGeometry>
        </mxCell>
        <mxCell id="HWj-FUaqQjM2sqnTud0V-110" style="edgeStyle=orthogonalEdgeStyle;rounded=0;orthogonalLoop=1;jettySize=auto;html=1;" parent="1" source="A24sD_70ZPP4tN2usuSs-415" target="A24sD_70ZPP4tN2usuSs-427" edge="1">
          <mxGeometry relative="1" as="geometry">
            <Array as="points">
              <mxPoint x="-670" y="180" />
            </Array>
          </mxGeometry>
        </mxCell>
        <mxCell id="A24sD_70ZPP4tN2usuSs-415" value="DesertMenuView" style="swimlane;fontStyle=1;align=center;verticalAlign=top;childLayout=stackLayout;horizontal=1;startSize=26;horizontalStack=0;resizeParent=1;resizeParentMax=0;resizeLast=0;collapsible=1;marginBottom=0;whiteSpace=wrap;html=1;fillColor=#e1d5e7;strokeColor=#9673a6;" parent="1" vertex="1">
          <mxGeometry x="-970" y="150" width="220" height="104" as="geometry" />
        </mxCell>
        <mxCell id="A24sD_70ZPP4tN2usuSs-416" value="- menuNameLabel : JLabel&lt;br&gt;- menuBtnList :List&amp;lt; JButton&amp;gt;" style="text;strokeColor=none;fillColor=none;align=left;verticalAlign=top;spacingLeft=4;spacingRight=4;overflow=hidden;rotatable=0;points=[[0,0.5],[1,0.5]];portConstraint=eastwest;whiteSpace=wrap;html=1;" parent="A24sD_70ZPP4tN2usuSs-415" vertex="1">
          <mxGeometry y="26" width="220" height="44" as="geometry" />
        </mxCell>
        <mxCell id="A24sD_70ZPP4tN2usuSs-417" value="" style="line;strokeWidth=1;fillColor=none;align=left;verticalAlign=middle;spacingTop=-1;spacingLeft=3;spacingRight=3;rotatable=0;labelPosition=right;points=[];portConstraint=eastwest;strokeColor=inherit;" parent="A24sD_70ZPP4tN2usuSs-415" vertex="1">
          <mxGeometry y="70" width="220" height="8" as="geometry" />
        </mxCell>
        <mxCell id="A24sD_70ZPP4tN2usuSs-418" value="+ method(type): type" style="text;strokeColor=none;fillColor=none;align=left;verticalAlign=top;spacingLeft=4;spacingRight=4;overflow=hidden;rotatable=0;points=[[0,0.5],[1,0.5]];portConstraint=eastwest;whiteSpace=wrap;html=1;" parent="A24sD_70ZPP4tN2usuSs-415" vertex="1">
          <mxGeometry y="78" width="220" height="26" as="geometry" />
        </mxCell>
        <mxCell id="HWj-FUaqQjM2sqnTud0V-40" style="edgeStyle=orthogonalEdgeStyle;rounded=0;orthogonalLoop=1;jettySize=auto;html=1;endArrow=none;endFill=0;" parent="1" source="A24sD_70ZPP4tN2usuSs-420" target="A24sD_70ZPP4tN2usuSs-61" edge="1">
          <mxGeometry relative="1" as="geometry">
            <Array as="points">
              <mxPoint x="-350" y="1874" />
              <mxPoint x="-350" y="1874" />
            </Array>
          </mxGeometry>
        </mxCell>
        <mxCell id="HWj-FUaqQjM2sqnTud0V-112" style="edgeStyle=orthogonalEdgeStyle;rounded=0;orthogonalLoop=1;jettySize=auto;html=1;" parent="1" source="A24sD_70ZPP4tN2usuSs-420" target="HWj-FUaqQjM2sqnTud0V-111" edge="1">
          <mxGeometry relative="1" as="geometry">
            <Array as="points">
              <mxPoint x="-360" y="1850" />
            </Array>
          </mxGeometry>
        </mxCell>
        <mxCell id="A24sD_70ZPP4tN2usuSs-420" value="AdProductView" style="swimlane;fontStyle=1;align=center;verticalAlign=top;childLayout=stackLayout;horizontal=1;startSize=26;horizontalStack=0;resizeParent=1;resizeParentMax=0;resizeLast=0;collapsible=1;marginBottom=0;whiteSpace=wrap;html=1;fillColor=#e1d5e7;strokeColor=#9673a6;" parent="1" vertex="1">
          <mxGeometry x="-630" y="1754" width="220" height="284" as="geometry" />
        </mxCell>
        <mxCell id="A24sD_70ZPP4tN2usuSs-421" value="-&amp;nbsp; newBtn : JButton&lt;br style=&quot;border-color: var(--border-color);&quot;&gt;-&amp;nbsp; changeBtn : JButton&lt;br style=&quot;border-color: var(--border-color);&quot;&gt;-&amp;nbsp; photoBtn : JButton&lt;br&gt;&lt;br style=&quot;border-color: var(--border-color);&quot;&gt;- photoJlb: JLabel&lt;br style=&quot;border-color: var(--border-color);&quot;&gt;&lt;br style=&quot;border-color: var(--border-color);&quot;&gt;- codeJtf : JTextField&lt;br style=&quot;border-color: var(--border-color);&quot;&gt;- nameJtf : JTextField&lt;br style=&quot;border-color: var(--border-color);&quot;&gt;- priceJtf : JTextField&lt;br style=&quot;border-color: var(--border-color);&quot;&gt;&lt;br style=&quot;border-color: var(--border-color);&quot;&gt;- productInfoTable : JTable&lt;br&gt;- productInfoDtm : DefaultTableModel&lt;br&gt;&lt;br style=&quot;border-color: var(--border-color);&quot;&gt;&lt;br style=&quot;border-color: var(--border-color);&quot;&gt;- jcbType : JComboBox" style="text;strokeColor=none;fillColor=none;align=left;verticalAlign=top;spacingLeft=4;spacingRight=4;overflow=hidden;rotatable=0;points=[[0,0.5],[1,0.5]];portConstraint=eastwest;whiteSpace=wrap;html=1;" parent="A24sD_70ZPP4tN2usuSs-420" vertex="1">
          <mxGeometry y="26" width="220" height="224" as="geometry" />
        </mxCell>
        <mxCell id="A24sD_70ZPP4tN2usuSs-422" value="" style="line;strokeWidth=1;fillColor=none;align=left;verticalAlign=middle;spacingTop=-1;spacingLeft=3;spacingRight=3;rotatable=0;labelPosition=right;points=[];portConstraint=eastwest;strokeColor=inherit;" parent="A24sD_70ZPP4tN2usuSs-420" vertex="1">
          <mxGeometry y="250" width="220" height="8" as="geometry" />
        </mxCell>
        <mxCell id="A24sD_70ZPP4tN2usuSs-423" value="+ method(type): type" style="text;strokeColor=none;fillColor=none;align=left;verticalAlign=top;spacingLeft=4;spacingRight=4;overflow=hidden;rotatable=0;points=[[0,0.5],[1,0.5]];portConstraint=eastwest;whiteSpace=wrap;html=1;" parent="A24sD_70ZPP4tN2usuSs-420" vertex="1">
          <mxGeometry y="258" width="220" height="26" as="geometry" />
        </mxCell>
        <mxCell id="A24sD_70ZPP4tN2usuSs-427" value="JPanel" style="html=1;whiteSpace=wrap;" parent="1" vertex="1">
          <mxGeometry x="-745" y="-120" width="128" height="63" as="geometry" />
        </mxCell>
        <mxCell id="A24sD_70ZPP4tN2usuSs-435" value="JFrame" style="html=1;whiteSpace=wrap;" parent="1" vertex="1">
          <mxGeometry x="-1640" y="-310" width="150" height="73" as="geometry" />
        </mxCell>
        <mxCell id="HWj-FUaqQjM2sqnTud0V-43" style="edgeStyle=orthogonalEdgeStyle;rounded=0;orthogonalLoop=1;jettySize=auto;html=1;endArrow=none;endFill=0;" parent="1" source="A24sD_70ZPP4tN2usuSs-436" target="A24sD_70ZPP4tN2usuSs-73" edge="1">
          <mxGeometry relative="1" as="geometry">
            <Array as="points">
              <mxPoint x="-300" y="2853" />
              <mxPoint x="-300" y="2853" />
            </Array>
          </mxGeometry>
        </mxCell>
        <mxCell id="HWj-FUaqQjM2sqnTud0V-115" style="edgeStyle=orthogonalEdgeStyle;rounded=0;orthogonalLoop=1;jettySize=auto;html=1;entryX=0.75;entryY=1;entryDx=0;entryDy=0;" parent="1" source="A24sD_70ZPP4tN2usuSs-436" target="HWj-FUaqQjM2sqnTud0V-111" edge="1">
          <mxGeometry relative="1" as="geometry">
            <Array as="points">
              <mxPoint x="-300" y="2820" />
              <mxPoint x="-300" y="1707" />
            </Array>
          </mxGeometry>
        </mxCell>
        <mxCell id="A24sD_70ZPP4tN2usuSs-436" value="AdOrderStatusView" style="swimlane;fontStyle=1;align=center;verticalAlign=top;childLayout=stackLayout;horizontal=1;startSize=26;horizontalStack=0;resizeParent=1;resizeParentMax=0;resizeLast=0;collapsible=1;marginBottom=0;whiteSpace=wrap;html=1;fillColor=#e1d5e7;strokeColor=#9673a6;" parent="1" vertex="1">
          <mxGeometry x="-635" y="2791" width="220" height="164" as="geometry" />
        </mxCell>
        <mxCell id="A24sD_70ZPP4tN2usuSs-437" value="-&amp;nbsp; checkBtn : JButton&lt;br style=&quot;border-color: var(--border-color);&quot;&gt;-&amp;nbsp; cancelBtn : JButton&lt;br&gt;&lt;br&gt;- orderStatusTable : JTable&lt;br&gt;- orderStatusDtm : DefaultStatusModel" style="text;strokeColor=none;fillColor=none;align=left;verticalAlign=top;spacingLeft=4;spacingRight=4;overflow=hidden;rotatable=0;points=[[0,0.5],[1,0.5]];portConstraint=eastwest;whiteSpace=wrap;html=1;" parent="A24sD_70ZPP4tN2usuSs-436" vertex="1">
          <mxGeometry y="26" width="220" height="104" as="geometry" />
        </mxCell>
        <mxCell id="A24sD_70ZPP4tN2usuSs-438" value="" style="line;strokeWidth=1;fillColor=none;align=left;verticalAlign=middle;spacingTop=-1;spacingLeft=3;spacingRight=3;rotatable=0;labelPosition=right;points=[];portConstraint=eastwest;strokeColor=inherit;" parent="A24sD_70ZPP4tN2usuSs-436" vertex="1">
          <mxGeometry y="130" width="220" height="8" as="geometry" />
        </mxCell>
        <mxCell id="A24sD_70ZPP4tN2usuSs-439" value="+ method(type): type" style="text;strokeColor=none;fillColor=none;align=left;verticalAlign=top;spacingLeft=4;spacingRight=4;overflow=hidden;rotatable=0;points=[[0,0.5],[1,0.5]];portConstraint=eastwest;whiteSpace=wrap;html=1;" parent="A24sD_70ZPP4tN2usuSs-436" vertex="1">
          <mxGeometry y="138" width="220" height="26" as="geometry" />
        </mxCell>
        <mxCell id="HWj-FUaqQjM2sqnTud0V-116" style="edgeStyle=orthogonalEdgeStyle;rounded=0;orthogonalLoop=1;jettySize=auto;html=1;entryX=0.882;entryY=1.009;entryDx=0;entryDy=0;entryPerimeter=0;" parent="1" source="A24sD_70ZPP4tN2usuSs-440" target="HWj-FUaqQjM2sqnTud0V-111" edge="1">
          <mxGeometry relative="1" as="geometry" />
        </mxCell>
        <mxCell id="A24sD_70ZPP4tN2usuSs-440" value="AdSalesView" style="swimlane;fontStyle=1;align=center;verticalAlign=top;childLayout=stackLayout;horizontal=1;startSize=26;horizontalStack=0;resizeParent=1;resizeParentMax=0;resizeLast=0;collapsible=1;marginBottom=0;whiteSpace=wrap;html=1;fillColor=#e1d5e7;strokeColor=#9673a6;" parent="1" vertex="1">
          <mxGeometry x="-635" y="3050" width="220" height="264" as="geometry" />
        </mxCell>
        <mxCell id="A24sD_70ZPP4tN2usuSs-441" value="- checkBtn : JButton&lt;br style=&quot;border-color: var(--border-color);&quot;&gt;- monthCheckBtn : JButton&lt;br style=&quot;border-color: var(--border-color);&quot;&gt;- dayCheckBtn : JButton&lt;br style=&quot;border-color: var(--border-color);&quot;&gt;&lt;br&gt;- saleListTable : JTable&lt;br&gt;- saleListDtm : DefaultTableModel&lt;br style=&quot;border-color: var(--border-color);&quot;&gt;&lt;br style=&quot;border-color: var(--border-color);&quot;&gt;- startJtf : JTextField&lt;br style=&quot;border-color: var(--border-color);&quot;&gt;- endJtf : JTextField&lt;br style=&quot;border-color: var(--border-color);&quot;&gt;&lt;br style=&quot;border-color: var(--border-color);&quot;&gt;- jcbName : JComboBox&lt;br style=&quot;border-color: var(--border-color);&quot;&gt;- jcbType : JComboBox&lt;br style=&quot;border-color: var(--border-color);&quot;&gt;&lt;br style=&quot;border-color: var(--border-color);&quot;&gt;- totalJta : JLabel" style="text;strokeColor=none;fillColor=none;align=left;verticalAlign=top;spacingLeft=4;spacingRight=4;overflow=hidden;rotatable=0;points=[[0,0.5],[1,0.5]];portConstraint=eastwest;whiteSpace=wrap;html=1;" parent="A24sD_70ZPP4tN2usuSs-440" vertex="1">
          <mxGeometry y="26" width="220" height="204" as="geometry" />
        </mxCell>
        <mxCell id="A24sD_70ZPP4tN2usuSs-442" value="" style="line;strokeWidth=1;fillColor=none;align=left;verticalAlign=middle;spacingTop=-1;spacingLeft=3;spacingRight=3;rotatable=0;labelPosition=right;points=[];portConstraint=eastwest;strokeColor=inherit;" parent="A24sD_70ZPP4tN2usuSs-440" vertex="1">
          <mxGeometry y="230" width="220" height="8" as="geometry" />
        </mxCell>
        <mxCell id="A24sD_70ZPP4tN2usuSs-443" value="+ method(type): type" style="text;strokeColor=none;fillColor=none;align=left;verticalAlign=top;spacingLeft=4;spacingRight=4;overflow=hidden;rotatable=0;points=[[0,0.5],[1,0.5]];portConstraint=eastwest;whiteSpace=wrap;html=1;" parent="A24sD_70ZPP4tN2usuSs-440" vertex="1">
          <mxGeometry y="238" width="220" height="26" as="geometry" />
        </mxCell>
        <mxCell id="HWj-FUaqQjM2sqnTud0V-88" style="edgeStyle=orthogonalEdgeStyle;rounded=0;orthogonalLoop=1;jettySize=auto;html=1;endArrow=none;endFill=0;" parent="1" source="A24sD_70ZPP4tN2usuSs-496" target="A24sD_70ZPP4tN2usuSs-226" edge="1">
          <mxGeometry relative="1" as="geometry">
            <Array as="points">
              <mxPoint x="730" y="3210" />
              <mxPoint x="730" y="3210" />
            </Array>
          </mxGeometry>
        </mxCell>
        <mxCell id="HWj-FUaqQjM2sqnTud0V-89" style="edgeStyle=orthogonalEdgeStyle;rounded=0;orthogonalLoop=1;jettySize=auto;html=1;endArrow=none;endFill=0;" parent="1" source="A24sD_70ZPP4tN2usuSs-496" target="A24sD_70ZPP4tN2usuSs-77" edge="1">
          <mxGeometry relative="1" as="geometry">
            <Array as="points">
              <mxPoint x="640" y="3300" />
              <mxPoint x="640" y="3300" />
            </Array>
          </mxGeometry>
        </mxCell>
        <mxCell id="A24sD_70ZPP4tN2usuSs-496" value="SalesDetailVO" style="swimlane;fontStyle=1;align=center;verticalAlign=top;childLayout=stackLayout;horizontal=1;startSize=26;horizontalStack=0;resizeParent=1;resizeParentMax=0;resizeLast=0;collapsible=1;marginBottom=0;whiteSpace=wrap;html=1;fillColor=#d5e8d4;strokeColor=#82b366;" parent="1" vertex="1">
          <mxGeometry x="780" y="3094" width="350" height="280" as="geometry" />
        </mxCell>
        <mxCell id="A24sD_70ZPP4tN2usuSs-497" value="&lt;div&gt;- pdTypeCode : String&lt;/div&gt;&lt;div&gt;- pdName : String&lt;/div&gt;&lt;div&gt;- oTempType : String&lt;/div&gt;&lt;div&gt;- oOptionNum : Int&lt;/div&gt;&lt;div&gt;- oSizeNum : Int&lt;/div&gt;&lt;div&gt;- pdMount : Int&lt;/div&gt;&lt;div&gt;- pdPrice : Int&lt;/div&gt;&lt;div&gt;- pmType : String&lt;/div&gt;&lt;div&gt;- pmDate : Date&lt;/div&gt;" style="text;strokeColor=none;fillColor=none;align=left;verticalAlign=top;spacingLeft=4;spacingRight=4;overflow=hidden;rotatable=0;points=[[0,0.5],[1,0.5]];portConstraint=eastwest;whiteSpace=wrap;html=1;" parent="A24sD_70ZPP4tN2usuSs-496" vertex="1">
          <mxGeometry y="26" width="350" height="154" as="geometry" />
        </mxCell>
        <mxCell id="A24sD_70ZPP4tN2usuSs-498" value="" style="line;strokeWidth=1;fillColor=none;align=left;verticalAlign=middle;spacingTop=-1;spacingLeft=3;spacingRight=3;rotatable=0;labelPosition=right;points=[];portConstraint=eastwest;strokeColor=inherit;" parent="A24sD_70ZPP4tN2usuSs-496" vertex="1">
          <mxGeometry y="180" width="350" height="8" as="geometry" />
        </mxCell>
        <mxCell id="A24sD_70ZPP4tN2usuSs-499" value="&lt;div&gt;+SalesDetailVO() : void&lt;/div&gt;&lt;div&gt;+SalesDetailVO(String, String, Int, Int, String, Date) : void&lt;/div&gt;&lt;div&gt;+getter&lt;/div&gt;&lt;div&gt;+setter&lt;/div&gt;&lt;div&gt;&lt;br&gt;&lt;/div&gt;" style="text;strokeColor=none;fillColor=none;align=left;verticalAlign=top;spacingLeft=4;spacingRight=4;overflow=hidden;rotatable=0;points=[[0,0.5],[1,0.5]];portConstraint=eastwest;whiteSpace=wrap;html=1;" parent="A24sD_70ZPP4tN2usuSs-496" vertex="1">
          <mxGeometry y="188" width="350" height="92" as="geometry" />
        </mxCell>
        <mxCell id="HWj-FUaqQjM2sqnTud0V-86" style="edgeStyle=orthogonalEdgeStyle;rounded=0;orthogonalLoop=1;jettySize=auto;html=1;endArrow=none;endFill=0;" parent="1" source="A24sD_70ZPP4tN2usuSs-500" target="A24sD_70ZPP4tN2usuSs-230" edge="1">
          <mxGeometry relative="1" as="geometry">
            <Array as="points">
              <mxPoint x="680" y="2900" />
              <mxPoint x="680" y="2900" />
            </Array>
          </mxGeometry>
        </mxCell>
        <mxCell id="HWj-FUaqQjM2sqnTud0V-87" style="edgeStyle=orthogonalEdgeStyle;rounded=0;orthogonalLoop=1;jettySize=auto;html=1;endArrow=none;endFill=0;" parent="1" source="A24sD_70ZPP4tN2usuSs-500" target="A24sD_70ZPP4tN2usuSs-73" edge="1">
          <mxGeometry relative="1" as="geometry">
            <Array as="points">
              <mxPoint x="440" y="2990" />
              <mxPoint x="440" y="2990" />
            </Array>
          </mxGeometry>
        </mxCell>
        <mxCell id="A24sD_70ZPP4tN2usuSs-500" value="OrderStatusVO" style="swimlane;fontStyle=1;align=center;verticalAlign=top;childLayout=stackLayout;horizontal=1;startSize=26;horizontalStack=0;resizeParent=1;resizeParentMax=0;resizeLast=0;collapsible=1;marginBottom=0;whiteSpace=wrap;html=1;fillColor=#d5e8d4;strokeColor=#82b366;" parent="1" vertex="1">
          <mxGeometry x="776" y="2790" width="400" height="260" as="geometry" />
        </mxCell>
        <mxCell id="A24sD_70ZPP4tN2usuSs-501" value="&lt;div&gt;- oNum : Int&lt;/div&gt;&lt;div&gt;- oStatus : String&lt;/div&gt;&lt;div&gt;- oDate : Date&lt;/div&gt;&lt;div&gt;- pdName : String&lt;/div&gt;&lt;div&gt;- oMount : Int&lt;/div&gt;&lt;div&gt;- oTempType : String&lt;/div&gt;&lt;div&gt;- oOptionNum : Int&lt;/div&gt;&lt;div&gt;- oSizeNum : Int&lt;/div&gt;&lt;div&gt;- pdPrice : Int&lt;/div&gt;" style="text;strokeColor=none;fillColor=none;align=left;verticalAlign=top;spacingLeft=4;spacingRight=4;overflow=hidden;rotatable=0;points=[[0,0.5],[1,0.5]];portConstraint=eastwest;whiteSpace=wrap;html=1;" parent="A24sD_70ZPP4tN2usuSs-500" vertex="1">
          <mxGeometry y="26" width="400" height="134" as="geometry" />
        </mxCell>
        <mxCell id="A24sD_70ZPP4tN2usuSs-502" value="" style="line;strokeWidth=1;fillColor=none;align=left;verticalAlign=middle;spacingTop=-1;spacingLeft=3;spacingRight=3;rotatable=0;labelPosition=right;points=[];portConstraint=eastwest;strokeColor=inherit;" parent="A24sD_70ZPP4tN2usuSs-500" vertex="1">
          <mxGeometry y="160" width="400" height="8" as="geometry" />
        </mxCell>
        <mxCell id="A24sD_70ZPP4tN2usuSs-503" value="&lt;div&gt;+OrderStatusVO() : void&lt;/div&gt;&lt;div&gt;+OrderStatusVO(Int, String, Date, String, Int, String, Int, Int, Int) : void&lt;/div&gt;&lt;div&gt;+getter&lt;/div&gt;&lt;div&gt;+setter&lt;/div&gt;" style="text;strokeColor=none;fillColor=none;align=left;verticalAlign=top;spacingLeft=4;spacingRight=4;overflow=hidden;rotatable=0;points=[[0,0.5],[1,0.5]];portConstraint=eastwest;whiteSpace=wrap;html=1;" parent="A24sD_70ZPP4tN2usuSs-500" vertex="1">
          <mxGeometry y="168" width="400" height="92" as="geometry" />
        </mxCell>
        <mxCell id="HWj-FUaqQjM2sqnTud0V-10" style="edgeStyle=orthogonalEdgeStyle;rounded=0;orthogonalLoop=1;jettySize=auto;html=1;endArrow=none;endFill=0;" parent="1" source="A24sD_70ZPP4tN2usuSs-374" target="A24sD_70ZPP4tN2usuSs-415" edge="1">
          <mxGeometry relative="1" as="geometry" />
        </mxCell>
        <mxCell id="HWj-FUaqQjM2sqnTud0V-44" style="edgeStyle=orthogonalEdgeStyle;rounded=0;orthogonalLoop=1;jettySize=auto;html=1;endArrow=none;endFill=0;" parent="1" source="A24sD_70ZPP4tN2usuSs-441" target="A24sD_70ZPP4tN2usuSs-77" edge="1">
          <mxGeometry relative="1" as="geometry">
            <Array as="points">
              <mxPoint x="-390" y="3214" />
              <mxPoint x="-390" y="3214" />
            </Array>
          </mxGeometry>
        </mxCell>
        <mxCell id="HWj-FUaqQjM2sqnTud0V-111" value="JPanel" style="html=1;whiteSpace=wrap;" parent="1" vertex="1">
          <mxGeometry x="-390" y="1644" width="128" height="63" as="geometry" />
        </mxCell>
        <mxCell id="HWj-FUaqQjM2sqnTud0V-117" value="WindowAdaptor" style="html=1;whiteSpace=wrap;" parent="1" vertex="1">
          <mxGeometry x="-531" y="-311.5" width="108" height="53" as="geometry" />
        </mxCell>
        <mxCell id="HWj-FUaqQjM2sqnTud0V-118" value="«interface»&lt;br&gt;&lt;b&gt;ActionListener&lt;/b&gt;" style="html=1;whiteSpace=wrap;" parent="1" vertex="1">
          <mxGeometry x="-413" y="-310" width="110" height="50" as="geometry" />
        </mxCell>
        <mxCell id="HWj-FUaqQjM2sqnTud0V-121" value="«interface»&lt;br&gt;&lt;b&gt;ActionListener&lt;/b&gt;" style="html=1;whiteSpace=wrap;" parent="1" vertex="1">
          <mxGeometry x="-468" y="181" width="110" height="50" as="geometry" />
        </mxCell>
        <mxCell id="HWj-FUaqQjM2sqnTud0V-123" value="WindowAdaptor" style="html=1;whiteSpace=wrap;" parent="1" vertex="1">
          <mxGeometry x="-975" y="468" width="108" height="53" as="geometry" />
        </mxCell>
        <mxCell id="HWj-FUaqQjM2sqnTud0V-124" value="«interface»&lt;br&gt;&lt;b&gt;ActionListener&lt;/b&gt;" style="html=1;whiteSpace=wrap;" parent="1" vertex="1">
          <mxGeometry x="-855" y="470" width="110" height="50" as="geometry" />
        </mxCell>
        <mxCell id="HWj-FUaqQjM2sqnTud0V-127" value="WindowAdaptor" style="html=1;whiteSpace=wrap;" parent="1" vertex="1">
          <mxGeometry x="-533" y="930" width="108" height="53" as="geometry" />
        </mxCell>
        <mxCell id="HWj-FUaqQjM2sqnTud0V-128" value="«interface»&lt;br&gt;&lt;b&gt;ActionListener&lt;/b&gt;" style="html=1;whiteSpace=wrap;" parent="1" vertex="1">
          <mxGeometry x="-413" y="932" width="110" height="50" as="geometry" />
        </mxCell>
        <mxCell id="HWj-FUaqQjM2sqnTud0V-131" value="WindowAdaptor" style="html=1;whiteSpace=wrap;" parent="1" vertex="1">
          <mxGeometry x="-985" y="1404" width="108" height="53" as="geometry" />
        </mxCell>
        <mxCell id="HWj-FUaqQjM2sqnTud0V-132" value="«interface»&lt;br&gt;&lt;b&gt;ActionListener&lt;/b&gt;" style="html=1;whiteSpace=wrap;" parent="1" vertex="1">
          <mxGeometry x="-865" y="1406" width="110" height="50" as="geometry" />
        </mxCell>
        <mxCell id="HWj-FUaqQjM2sqnTud0V-135" value="«interface»&lt;br&gt;&lt;b&gt;ActionListener&lt;/b&gt;" style="html=1;whiteSpace=wrap;" parent="1" vertex="1">
          <mxGeometry x="-84" y="1673" width="110" height="50" as="geometry" />
        </mxCell>
        <mxCell id="HWj-FUaqQjM2sqnTud0V-136" value="MouseAdaptor" style="html=1;whiteSpace=wrap;" parent="1" vertex="1">
          <mxGeometry x="-204" y="1670" width="108" height="53" as="geometry" />
        </mxCell>
        <mxCell id="HWj-FUaqQjM2sqnTud0V-139" value="«interface»&lt;br&gt;&lt;b&gt;ActionListener&lt;/b&gt;" style="html=1;whiteSpace=wrap;" parent="1" vertex="1">
          <mxGeometry x="-89" y="2048" width="110" height="50" as="geometry" />
        </mxCell>
        <mxCell id="HWj-FUaqQjM2sqnTud0V-140" value="MouseAdaptor" style="html=1;whiteSpace=wrap;" parent="1" vertex="1">
          <mxGeometry x="-209" y="2045" width="108" height="53" as="geometry" />
        </mxCell>
        <mxCell id="HWj-FUaqQjM2sqnTud0V-143" value="«interface»&lt;br&gt;&lt;b&gt;ActionListener&lt;/b&gt;" style="html=1;whiteSpace=wrap;" parent="1" vertex="1">
          <mxGeometry x="-85" y="2378" width="110" height="50" as="geometry" />
        </mxCell>
        <mxCell id="HWj-FUaqQjM2sqnTud0V-144" value="MouseAdaptor" style="html=1;whiteSpace=wrap;" parent="1" vertex="1">
          <mxGeometry x="-214" y="2378" width="108" height="53" as="geometry" />
        </mxCell>
        <mxCell id="HWj-FUaqQjM2sqnTud0V-147" value="«interface»&lt;br&gt;&lt;b&gt;ActionListener&lt;/b&gt;" style="html=1;whiteSpace=wrap;" parent="1" vertex="1">
          <mxGeometry x="-84" y="2712.5" width="110" height="50" as="geometry" />
        </mxCell>
        <mxCell id="HWj-FUaqQjM2sqnTud0V-148" value="MouseAdaptor" style="html=1;whiteSpace=wrap;" parent="1" vertex="1">
          <mxGeometry x="-214" y="2711" width="108" height="53" as="geometry" />
        </mxCell>
        <mxCell id="HWj-FUaqQjM2sqnTud0V-151" value="«interface»&lt;br&gt;&lt;b&gt;ActionListener&lt;/b&gt;" style="html=1;whiteSpace=wrap;" parent="1" vertex="1">
          <mxGeometry x="-85" y="3034.5" width="110" height="50" as="geometry" />
        </mxCell>
        <mxCell id="HWj-FUaqQjM2sqnTud0V-152" value="MouseAdaptor" style="html=1;whiteSpace=wrap;" parent="1" vertex="1">
          <mxGeometry x="-208" y="3033" width="108" height="53" as="geometry" />
        </mxCell>
        <mxCell id="YMMITuhaj67rEgLWty4f-6" style="edgeStyle=orthogonalEdgeStyle;rounded=0;orthogonalLoop=1;jettySize=auto;html=1;endArrow=none;endFill=0;" edge="1" parent="1" source="YMMITuhaj67rEgLWty4f-1" target="A24sD_70ZPP4tN2usuSs-164">
          <mxGeometry relative="1" as="geometry" />
        </mxCell>
        <mxCell id="YMMITuhaj67rEgLWty4f-1" value="App" style="swimlane;fontStyle=1;align=center;verticalAlign=top;childLayout=stackLayout;horizontal=1;startSize=26;horizontalStack=0;resizeParent=1;resizeParentMax=0;resizeLast=0;collapsible=1;marginBottom=0;whiteSpace=wrap;html=1;fillColor=#60a917;fontColor=#ffffff;strokeColor=#2D7600;" vertex="1" parent="1">
          <mxGeometry x="-1275" y="-315" width="160" height="60" as="geometry" />
        </mxCell>
        <mxCell id="YMMITuhaj67rEgLWty4f-3" value="" style="line;strokeWidth=1;fillColor=none;align=left;verticalAlign=middle;spacingTop=-1;spacingLeft=3;spacingRight=3;rotatable=0;labelPosition=right;points=[];portConstraint=eastwest;strokeColor=inherit;" vertex="1" parent="YMMITuhaj67rEgLWty4f-1">
          <mxGeometry y="26" width="160" height="8" as="geometry" />
        </mxCell>
        <mxCell id="YMMITuhaj67rEgLWty4f-4" value="+ main() : void" style="text;strokeColor=none;fillColor=none;align=left;verticalAlign=top;spacingLeft=4;spacingRight=4;overflow=hidden;rotatable=0;points=[[0,0.5],[1,0.5]];portConstraint=eastwest;whiteSpace=wrap;html=1;" vertex="1" parent="YMMITuhaj67rEgLWty4f-1">
          <mxGeometry y="34" width="160" height="26" as="geometry" />
        </mxCell>
      </root>
    </mxGraphModel>
  </diagram>
</mxfile>
